<?xml version="1.0" encoding="utf-8"?>
<!-- Generator: Adobe Illustrator 25.0.1, SVG Export Plug-In . SVG Version: 6.00 Build 0)  -->
<svg version="1.1" id="Layer_1" xmlns="http://www.w3.org/2000/svg" xmlns:xlink="http://www.w3.org/1999/xlink" x="0px" y="0px"
	 viewBox="0 0 40 40" style="enable-background:new 0 0 40 40;" xml:space="preserve">
<style type="text/css">
	.st0{fill:#FFFFFF;}
	.st1{fill:none;stroke:#FFFFFF;stroke-width:2;stroke-miterlimit:10;}
</style>
<g>
	<rect x="9.2" y="4.1" class="st0" width="3.5" height="3.5"/>
	<rect x="13.7" y="4.1" class="st0" width="3.5" height="3.5"/>
	<rect x="18.2" y="4.1" class="st0" width="3.5" height="3.5"/>
	<rect x="22.8" y="4.1" class="st0" width="3.5" height="3.5"/>
	<rect x="27.3" y="4.1" class="st0" width="3.5" height="3.5"/>
	<rect x="9.2" y="8.7" class="st0" width="3.5" height="3.5"/>
	<rect x="13.7" y="8.7" class="st0" width="3.5" height="3.5"/>
	<rect x="18.2" y="8.7" class="st0" width="3.5" height="3.5"/>
	<rect x="22.8" y="8.7" class="st0" width="3.5" height="3.5"/>
	<rect x="27.3" y="8.7" class="st0" width="3.5" height="3.5"/>
	<rect x="9.2" y="13.4" class="st0" width="3.5" height="3.5"/>
	<rect x="13.7" y="13.4" class="st0" width="3.5" height="3.5"/>
	<rect x="18.2" y="13.4" class="st0" width="3.5" height="3.5"/>
	<rect x="22.8" y="13.4" class="st0" width="3.5" height="3.5"/>
	<rect x="27.3" y="13.4" class="st0" width="3.5" height="3.5"/>
	<rect x="9.2" y="18" class="st0" width="3.5" height="3.5"/>
	<rect x="13.7" y="18" class="st0" width="3.5" height="3.5"/>
	<rect x="18.2" y="18" class="st0" width="3.5" height="3.5"/>
	<rect x="22.8" y="18" class="st0" width="3.5" height="3.5"/>
	<rect x="27.3" y="18" class="st0" width="3.5" height="3.5"/>
	<path class="st0" d="M20.4,36.4l3.8-3.8c0.3-0.3,0.1-0.9-0.4-0.9h-7.6c-0.5,0-0.7,0.6-0.4,0.9l3.8,3.8
		C19.9,36.6,20.2,36.6,20.4,36.4z"/>
	<path class="st0" d="M21.8,30.9h-3.7c-0.1,0-0.2-0.1-0.3-0.2l-0.5-1.4c-0.1-0.2,0.1-0.4,0.3-0.4h4.7c0.2,0,0.4,0.2,0.3,0.4
		l-0.5,1.4C22,30.8,21.9,30.9,21.8,30.9z"/>
	<path class="st0" d="M22.5,27.7h-5.1c-0.1,0-0.2-0.1-0.3-0.2l-0.5-1.4c-0.1-0.2,0.1-0.4,0.3-0.4H23c0.2,0,0.4,0.2,0.3,0.4l-0.5,1.4
		C22.7,27.6,22.6,27.7,22.5,27.7z"/>
	<path class="st0" d="M23.3,24.6h-6.7c-0.1,0-0.2-0.1-0.3-0.2L15.7,23c-0.1-0.2,0.1-0.4,0.3-0.4h7.9c0.2,0,0.4,0.2,0.3,0.4l-0.6,1.4
		C23.5,24.5,23.4,24.6,23.3,24.6z"/>
</g>
<path class="st1" d="M29.3,38.8H10.7c-5.2,0-9.5-4.2-9.5-9.5V10.7c0-5.2,4.2-9.5,9.5-9.5h18.6c5.2,0,9.5,4.2,9.5,9.5v18.6
	C38.8,34.5,34.5,38.8,29.3,38.8z"/>
</svg>
