<?xml version="1.0" encoding="utf-8"?>
<!-- Generator: Adobe Illustrator 25.0.1, SVG Export Plug-In . SVG Version: 6.00 Build 0)  -->
<svg version="1.1" id="Layer_1" xmlns="http://www.w3.org/2000/svg" xmlns:xlink="http://www.w3.org/1999/xlink" x="0px" y="0px"
	 viewBox="0 0 40 40" style="enable-background:new 0 0 40 40;" xml:space="preserve">
<style type="text/css">
	.st0{fill:#FFFFFF;}
	.st1{fill:none;stroke:#FFFFFF;stroke-width:2;stroke-miterlimit:10;}
</style>
<g>
	<path class="st0" d="M20.4,35.6l3.5-3.5c0.3-0.3,0.1-0.8-0.4-0.8h-7c-0.4,0-0.7,0.5-0.4,0.8l3.5,3.5C19.9,35.8,20.2,35.8,20.4,35.6
		z"/>
	<path class="st0" d="M21.6,30.5h-3.4c-0.1,0-0.2-0.1-0.3-0.2L17.5,29c-0.1-0.2,0.1-0.4,0.3-0.4h4.3c0.2,0,0.3,0.2,0.3,0.4l-0.5,1.3
		C21.9,30.4,21.8,30.5,21.6,30.5z"/>
	<path class="st0" d="M22.3,27.6h-4.7c-0.1,0-0.2-0.1-0.3-0.2l-0.5-1.3c-0.1-0.2,0.1-0.4,0.3-0.4h5.7c0.2,0,0.3,0.2,0.3,0.4
		l-0.5,1.3C22.5,27.5,22.4,27.6,22.3,27.6z"/>
	<path class="st0" d="M23,24.7h-6.2c-0.1,0-0.2-0.1-0.3-0.2L16,23.2c-0.1-0.2,0.1-0.4,0.3-0.4h7.4c0.2,0,0.4,0.2,0.3,0.4l-0.6,1.3
		C23.2,24.7,23.1,24.7,23,24.7z"/>
</g>
<path class="st1" d="M29.3,38.8H10.7c-5.2,0-9.5-4.2-9.5-9.5V10.7c0-5.2,4.2-9.5,9.5-9.5h18.6c5.2,0,9.5,4.2,9.5,9.5v18.6
	C38.8,34.5,34.5,38.8,29.3,38.8z"/>
<g>
	<path class="st0" d="M9.6,4.8L9.6,4.8C5.9,6.1,4,10.3,5.4,13.9l2.5,6.7l0,0c3.7-1.4,5.6-5.5,4.2-9.2L9.6,4.8z"/>
	<path class="st0" d="M15.4,4.8L15.4,4.8c3.7,1.4,5.6,5.5,4.2,9.2l-2.5,6.7l0,0c-3.7-1.4-5.6-5.5-4.2-9.2L15.4,4.8z"/>
</g>
<g>
	<path class="st0" d="M24.6,4.8L24.6,4.8c-3.7,1.4-5.6,5.5-4.2,9.2l2.5,6.7l0,0c3.7-1.4,5.6-5.5,4.2-9.2L24.6,4.8z"/>
	<path class="st0" d="M30.5,4.8L30.5,4.8c3.7,1.4,5.6,5.5,4.2,9.2l-2.5,6.7l0,0c-3.7-1.4-5.6-5.5-4.2-9.2L30.5,4.8z"/>
</g>
</svg>
