<?xml version="1.0" encoding="utf-8"?>
<!-- Generator: Adobe Illustrator 25.0.1, SVG Export Plug-In . SVG Version: 6.00 Build 0)  -->
<svg version="1.1" id="Layer_1" xmlns="http://www.w3.org/2000/svg" xmlns:xlink="http://www.w3.org/1999/xlink" x="0px" y="0px"
	 viewBox="0 0 40 40" style="enable-background:new 0 0 40 40;" xml:space="preserve">
<style type="text/css">
	.st0{fill:#FFFFFF;}
	.st1{fill:none;stroke:#FFFFFF;stroke-width:2;stroke-linecap:round;stroke-miterlimit:10;}
	.st2{fill:none;stroke:#FFFFFF;stroke-linecap:round;stroke-miterlimit:10;}
</style>
<g>
	<path class="st0" d="M19.6,25.6L19.6,25.6l-0.7-3c-0.4-1.7-1.6-2.5-2.8-1.9l0,0l0.7,3C17.2,25.3,18.5,26.2,19.6,25.6z"/>
	<path class="st0" d="M18.2,25.6L18.2,25.6l0.7-3c0.4-1.7,1.6-2.5,2.8-1.9h0l-0.7,3C20.6,25.3,19.4,26.2,18.2,25.6z"/>
	<path class="st0" d="M23.8,25.6L23.8,25.6l-0.7-3c-0.4-1.7-1.6-2.5-2.8-1.9l0,0l0.7,3C21.4,25.3,22.7,26.2,23.8,25.6z"/>
	<path class="st0" d="M22.4,25.6L22.4,25.6l0.7-3c0.4-1.7,1.6-2.5,2.8-1.9h0l-0.7,3C24.8,25.3,23.5,26.2,22.4,25.6z"/>
	<path class="st0" d="M28,25.6L28,25.6l-0.7-3c-0.4-1.7-1.6-2.5-2.8-1.9l0,0l0.7,3C25.6,25.3,26.8,26.2,28,25.6z"/>
	<path class="st0" d="M26.6,25.6L26.6,25.6l0.7-3c0.4-1.7,1.6-2.5,2.8-1.9h0l-0.7,3C29,25.3,27.7,26.2,26.6,25.6z"/>
	<path class="st0" d="M32.2,25.6L32.2,25.6l-0.7-3c-0.4-1.7-1.6-2.5-2.8-1.9l0,0l0.7,3C29.8,25.3,31.1,26.2,32.2,25.6z"/>
	<path class="st0" d="M30.8,25.6L30.8,25.6c0,0,0.4-1.9,0.7-3c0.7-2.2,1.5-2,2.6-1.4l-0.6,2.5C33.2,25.3,31.9,26.2,30.8,25.6z"/>
	<path class="st0" d="M19.6,30.1L19.6,30.1l-0.7-3c-0.4-1.7-1.6-2.5-2.8-1.9l0,0l0.7,3C17.2,29.9,18.5,30.7,19.6,30.1z"/>
	<path class="st0" d="M18.2,30.1L18.2,30.1l0.7-3c0.4-1.7,1.6-2.5,2.8-1.9h0l-0.7,3C20.6,29.9,19.4,30.7,18.2,30.1z"/>
	<path class="st0" d="M23.8,30.1L23.8,30.1l-0.7-3c-0.4-1.7-1.6-2.5-2.8-1.9l0,0l0.7,3C21.4,29.9,22.7,30.7,23.8,30.1z"/>
	<path class="st0" d="M22.4,30.1L22.4,30.1l0.7-3c0.4-1.7,1.6-2.5,2.8-1.9h0l-0.7,3C24.8,29.9,23.5,30.7,22.4,30.1z"/>
	<path class="st0" d="M28,30.1L28,30.1l-0.7-3c-0.4-1.7-1.6-2.5-2.8-1.9l0,0l0.7,3C25.6,29.9,26.8,30.7,28,30.1z"/>
	<path class="st0" d="M26.6,30.1L26.6,30.1l0.7-3c0.4-1.7,1.6-2.5,2.8-1.9h0l-0.7,3C29,29.9,27.7,30.7,26.6,30.1z"/>
	<path class="st0" d="M32.2,30.1L32.2,30.1l-0.7-3c-0.4-1.7-1.6-2.5-2.8-1.9l0,0l0.7,3C29.8,29.9,31.1,30.7,32.2,30.1z"/>
	<path class="st0" d="M30.8,30.1L30.8,30.1l0.7-3c0.4-1.7,1.6-2.5,2.8-1.9l0,0l-0.7,3C33.2,29.9,31.9,30.7,30.8,30.1z"/>
	<path class="st0" d="M36.5,30.1L36.5,30.1l-0.7-3c-0.4-1.7-1.6-2.5-2.8-1.9l0,0l0.7,3C34.1,29.9,35.3,30.7,36.5,30.1z"/>
	<path class="st0" d="M35.1,30.1L35.1,30.1l0.7-3c0.4-1.7,1.6-2.5,2.8-1.9h0l-0.7,3C37.5,29.9,36.2,30.7,35.1,30.1z"/>
	<path class="st0" d="M19.6,34.7L19.6,34.7l-0.7-3c-0.4-1.7-1.6-2.5-2.8-1.9h0l0.7,3C17.2,34.4,18.5,35.3,19.6,34.7z"/>
	<path class="st0" d="M18.2,34.7L18.2,34.7l0.7-3c0.4-1.7,1.6-2.5,2.8-1.9h0l-0.7,3C20.6,34.4,19.4,35.3,18.2,34.7z"/>
	<path class="st0" d="M23.8,34.7L23.8,34.7l-0.7-3c-0.4-1.7-1.6-2.5-2.8-1.9h0l0.7,3C21.4,34.4,22.7,35.3,23.8,34.7z"/>
	<path class="st0" d="M22.4,34.7L22.4,34.7l0.7-3c0.4-1.7,1.6-2.5,2.8-1.9h0l-0.7,3C24.8,34.4,23.5,35.3,22.4,34.7z"/>
	<path class="st0" d="M28,34.7L28,34.7l-0.7-3c-0.4-1.7-1.6-2.5-2.8-1.9h0l0.7,3C25.6,34.4,26.8,35.3,28,34.7z"/>
	<path class="st0" d="M26.6,34.7L26.6,34.7l0.7-3c0.4-1.7,1.6-2.5,2.8-1.9h0l-0.7,3C29,34.4,27.7,35.3,26.6,34.7z"/>
	<path class="st0" d="M32.2,34.7L32.2,34.7l-0.7-3c-0.4-1.7-1.6-2.5-2.8-1.9h0l0.7,3C29.8,34.4,31.1,35.3,32.2,34.7z"/>
	<path class="st0" d="M30.8,34.7L30.8,34.7l0.7-3c0.4-1.7,1.6-2.5,2.8-1.9l0,0l-0.7,3C33.2,34.4,31.9,35.3,30.8,34.7z"/>
	<path class="st0" d="M36.5,34.7L36.5,34.7l-0.7-3c-0.4-1.7-1.6-2.5-2.8-1.9h0l0.7,3C34.1,34.4,35.3,35.3,36.5,34.7z"/>
	<path class="st0" d="M35.1,34.7L35.1,34.7l0.7-3c0.4-1.7,1.6-2.5,2.8-1.9h0l-0.7,3C37.5,34.4,36.2,35.3,35.1,34.7z"/>
	<path class="st0" d="M19.6,39.2L19.6,39.2l-0.7-3c-0.4-1.7-1.6-2.5-2.8-1.9h0l0.7,3C17.2,38.9,18.5,39.8,19.6,39.2z"/>
	<path class="st0" d="M18.2,39.2L18.2,39.2l0.7-3c0.4-1.7,1.6-2.5,2.8-1.9h0l-0.7,3C20.6,38.9,19.4,39.8,18.2,39.2z"/>
	<path class="st0" d="M23.8,39.2L23.8,39.2l-0.7-3c-0.4-1.7-1.6-2.5-2.8-1.9h0l0.7,3C21.4,38.9,22.7,39.8,23.8,39.2z"/>
	<path class="st0" d="M22.4,39.2L22.4,39.2l0.7-3c0.4-1.7,1.6-2.5,2.8-1.9h0l-0.7,3C24.8,38.9,23.5,39.8,22.4,39.2z"/>
	<path class="st0" d="M28,39.2L28,39.2l-0.7-3c-0.4-1.7-1.6-2.5-2.8-1.9h0l0.7,3C25.6,38.9,26.8,39.8,28,39.2z"/>
	<path class="st0" d="M26.6,39.2L26.6,39.2l0.7-3c0.4-1.7,1.6-2.5,2.8-1.9h0l-0.7,3C29,38.9,27.7,39.8,26.6,39.2z"/>
	<path class="st0" d="M32.2,39.2L32.2,39.2l-0.7-3c-0.4-1.7-1.6-2.5-2.8-1.9h0l0.7,3C29.8,38.9,31.1,39.8,32.2,39.2z"/>
	<path class="st0" d="M30.8,39.2L30.8,39.2l0.7-3c0.4-1.7,1.6-2.5,2.8-1.9l0,0l-0.7,3C33.2,38.9,31.9,39.8,30.8,39.2z"/>
	<path class="st0" d="M36.5,39.2L36.5,39.2l-0.7-3c-0.4-1.7-1.6-2.5-2.8-1.9h0l0.7,3C34.1,38.9,35.3,39.8,36.5,39.2z"/>
	<path class="st0" d="M35.1,39.2L35.1,39.2l0.7-3c0.4-1.7,1.6-2.5,2.8-1.9h0l-0.7,3C37.5,38.9,36.2,39.8,35.1,39.2z"/>
</g>
<g>
	<circle class="st1" cx="10.4" cy="11" r="8.3"/>
	<path class="st1" d="M8.4,2.9c6.9-1.4,16.9-1.2,22,0.6c7.5,2.7,6.1,8.4-0.7,8.9c-6.8,0.5-5.7,5.8-1.4,5.5c6.7-0.4,4.8,3.4,4.5,4.2"
		/>
	<path class="st1" d="M2.9,7.4c0,0,0.1,5.3,4.8,8.1c4.3,2.5,8.3,1.6,8.3,1.6"/>
	<path class="st1" d="M6.2,4.2c0,0,1.1,1.5,0.8,3.4c-0.5,3.1-2,4.7-2,4.7"/>
	<path class="st1" d="M9.8,3.2c0,0,1.6,2.2,1.1,5.1C10.2,12.8,8,15.2,8,15.2"/>
	<path class="st1" d="M10.7,9.5c0,0,1.3,0.6,2.6,2.8c1.3,2.1,1.5,4.9,1.5,4.9"/>
	<path class="st1" d="M10.8,5.5c0,0,2.7,0.7,4.6,3.2c2.1,2.8,2.7,5.4,2.7,5.4"/>
	<path class="st1" d="M3.9,16.2c0,0,0.7-0.3,1.2-0.7c0.6-0.5,0.8-1.2,0.8-1.2"/>
	<path class="st1" d="M8.3,18.8c0,0,0.6-0.5,0.9-1.1c0.4-0.7,0.4-1.4,0.4-1.4"/>
	<path class="st2" d="M31.5,14.9c0,0,6.2-0.8,6.7-6C38.7,3.8,33,1.8,33,1.8"/>
	<polyline class="st2" points="33.3,2.7 32.9,1.7 33.9,1.4 	"/>
</g>
</svg>
