<?xml version="1.0" encoding="utf-8"?>
<!-- Generator: Adobe Illustrator 25.0.1, SVG Export Plug-In . SVG Version: 6.00 Build 0)  -->
<svg version="1.1" id="Layer_1" xmlns="http://www.w3.org/2000/svg" xmlns:xlink="http://www.w3.org/1999/xlink" x="0px" y="0px"
	 viewBox="0 0 40 40" style="enable-background:new 0 0 40 40;" xml:space="preserve">
<style type="text/css">
	.st0{fill:#FFFFFF;}
	.st1{fill:none;stroke:#FFFFFF;stroke-width:2;stroke-miterlimit:10;}
</style>
<g>
	<g>
		<path class="st0" d="M18.5,25L18.5,25l-0.6-2.4c-0.3-1.3-1.3-2-2.3-1.5l0,0l0.6,2.4C16.6,24.8,17.6,25.5,18.5,25z"/>
	</g>
	<g>
		<path class="st0" d="M17.3,25L17.3,25l0.6-2.4c0.3-1.3,1.3-2,2.3-1.5l0,0l-0.6,2.4C19.3,24.8,18.3,25.5,17.3,25z"/>
	</g>
	<g>
		<path class="st0" d="M21.9,25L21.9,25l-0.6-2.4c-0.3-1.3-1.3-2-2.3-1.5l0,0l0.6,2.4C19.9,24.8,21,25.5,21.9,25z"/>
	</g>
	<g>
		<path class="st0" d="M20.8,25L20.8,25l0.6-2.4c0.3-1.3,1.3-2,2.3-1.5l0,0L23,23.5C22.7,24.8,21.7,25.5,20.8,25z"/>
	</g>
	<g>
		<path class="st0" d="M25.3,25L25.3,25l-0.6-2.4c-0.3-1.3-1.3-2-2.3-1.5l0,0l0.6,2.4C23.4,24.8,24.4,25.5,25.3,25z"/>
	</g>
	<g>
		<path class="st0" d="M24.2,25L24.2,25l0.6-2.4c0.3-1.3,1.3-2,2.3-1.5l0,0l-0.6,2.4C26.1,24.8,25.1,25.5,24.2,25z"/>
	</g>
	<g>
		<path class="st0" d="M28.8,25L28.8,25l-0.6-2.4c-0.3-1.3-1.3-2-2.3-1.5l0,0l0.6,2.4C26.8,24.8,27.8,25.5,28.8,25z"/>
	</g>
	<g>
		<path class="st0" d="M27.6,25L27.6,25c0,0,0.3-1.5,0.6-2.4c0.6-1.8,1.3-1.6,2.1-1.2l-0.5,2C29.6,24.8,28.5,25.5,27.6,25z"/>
	</g>
	<g>
		<path class="st0" d="M18.5,28.6L18.5,28.6l-0.6-2.4c-0.3-1.3-1.3-2-2.3-1.5l0,0l0.6,2.4C16.6,28.5,17.6,29.1,18.5,28.6z"/>
	</g>
	<g>
		<path class="st0" d="M17.3,28.6L17.3,28.6l0.6-2.4c0.3-1.3,1.3-2,2.3-1.5l0,0l-0.6,2.4C19.3,28.5,18.3,29.1,17.3,28.6z"/>
	</g>
	<g>
		<path class="st0" d="M21.9,28.6L21.9,28.6l-0.6-2.4c-0.3-1.3-1.3-2-2.3-1.5l0,0l0.6,2.4C19.9,28.5,21,29.1,21.9,28.6z"/>
	</g>
	<g>
		<path class="st0" d="M20.8,28.6L20.8,28.6l0.6-2.4c0.3-1.3,1.3-2,2.3-1.5l0,0L23,27.1C22.7,28.5,21.7,29.1,20.8,28.6z"/>
	</g>
	<g>
		<path class="st0" d="M25.3,28.6L25.3,28.6l-0.6-2.4c-0.3-1.3-1.3-2-2.3-1.5l0,0l0.6,2.4C23.4,28.5,24.4,29.1,25.3,28.6z"/>
	</g>
	<g>
		<path class="st0" d="M24.2,28.6L24.2,28.6l0.6-2.4c0.3-1.3,1.3-2,2.3-1.5l0,0l-0.6,2.4C26.1,28.5,25.1,29.1,24.2,28.6z"/>
	</g>
	<g>
		<path class="st0" d="M28.8,28.6L28.8,28.6l-0.6-2.4c-0.3-1.3-1.3-2-2.3-1.5l0,0l0.6,2.4C26.8,28.5,27.8,29.1,28.8,28.6z"/>
	</g>
	<g>
		<path class="st0" d="M27.6,28.6L27.6,28.6l0.6-2.4c0.3-1.3,1.3-2,2.3-1.5l0,0l-0.6,2.4C29.6,28.5,28.5,29.1,27.6,28.6z"/>
	</g>
	<g>
		<path class="st0" d="M32.2,28.6L32.2,28.6l-0.6-2.4c-0.3-1.3-1.3-2-2.3-1.5l0,0l0.6,2.4C30.3,28.5,31.3,29.1,32.2,28.6z"/>
	</g>
	<g>
		<path class="st0" d="M31.1,28.6L31.1,28.6l0.6-2.4c0.3-1.3,1.3-2,2.3-1.5l0,0l-0.6,2.4C33,28.5,32,29.1,31.1,28.6z"/>
	</g>
	<g>
		<path class="st0" d="M18.5,32.4L18.5,32.4L17.9,30c-0.3-1.3-1.3-2-2.3-1.5l0,0l0.6,2.4C16.6,32.2,17.6,32.9,18.5,32.4z"/>
	</g>
	<g>
		<path class="st0" d="M17.3,32.4L17.3,32.4l0.6-2.4c0.3-1.3,1.3-2,2.3-1.5l0,0l-0.6,2.4C19.3,32.2,18.3,32.9,17.3,32.4z"/>
	</g>
	<g>
		<path class="st0" d="M21.9,32.4L21.9,32.4L21.4,30c-0.3-1.3-1.3-2-2.3-1.5l0,0l0.6,2.4C19.9,32.2,21,32.9,21.9,32.4z"/>
	</g>
	<g>
		<path class="st0" d="M20.8,32.4L20.8,32.4l0.6-2.4c0.3-1.3,1.3-2,2.3-1.5l0,0L23,30.9C22.7,32.2,21.7,32.9,20.8,32.4z"/>
	</g>
	<g>
		<path class="st0" d="M25.3,32.4L25.3,32.4L24.7,30c-0.3-1.3-1.3-2-2.3-1.5l0,0l0.6,2.4C23.4,32.2,24.4,32.9,25.3,32.4z"/>
	</g>
	<g>
		<path class="st0" d="M24.2,32.4L24.2,32.4l0.6-2.4c0.3-1.3,1.3-2,2.3-1.5l0,0l-0.6,2.4C26.1,32.2,25.1,32.9,24.2,32.4z"/>
	</g>
	<g>
		<path class="st0" d="M28.8,32.4L28.8,32.4L28.2,30c-0.3-1.3-1.3-2-2.3-1.5l0,0l0.6,2.4C26.8,32.2,27.8,32.9,28.8,32.4z"/>
	</g>
	<g>
		<path class="st0" d="M27.6,32.4L27.6,32.4l0.6-2.4c0.3-1.3,1.3-2,2.3-1.5l0,0l-0.6,2.4C29.6,32.2,28.5,32.9,27.6,32.4z"/>
	</g>
	<g>
		<path class="st0" d="M32.2,32.4L32.2,32.4L31.6,30c-0.3-1.3-1.3-2-2.3-1.5l0,0l0.6,2.4C30.3,32.2,31.3,32.9,32.2,32.4z"/>
	</g>
	<g>
		<path class="st0" d="M31.1,32.4L31.1,32.4l0.6-2.4c0.3-1.3,1.3-2,2.3-1.5l0,0l-0.6,2.4C33,32.2,32,32.9,31.1,32.4z"/>
	</g>
	<g>
		<path class="st0" d="M18.5,36.1L18.5,36.1l-0.6-2.4c-0.3-1.3-1.3-2-2.3-1.5l0,0l0.6,2.4C16.6,35.9,17.6,36.5,18.5,36.1z"/>
	</g>
	<g>
		<path class="st0" d="M17.3,36.1L17.3,36.1l0.6-2.4c0.3-1.3,1.3-2,2.3-1.5l0,0l-0.6,2.4C19.3,35.9,18.3,36.5,17.3,36.1z"/>
	</g>
	<g>
		<path class="st0" d="M21.9,36.1L21.9,36.1l-0.6-2.4c-0.3-1.3-1.3-2-2.3-1.5l0,0l0.6,2.4C19.9,35.9,21,36.5,21.9,36.1z"/>
	</g>
	<g>
		<path class="st0" d="M20.8,36.1L20.8,36.1l0.6-2.4c0.3-1.3,1.3-2,2.3-1.5l0,0L23,34.6C22.7,35.9,21.7,36.5,20.8,36.1z"/>
	</g>
	<g>
		<path class="st0" d="M25.3,36.1L25.3,36.1l-0.6-2.4c-0.3-1.3-1.3-2-2.3-1.5l0,0l0.6,2.4C23.4,35.9,24.4,36.5,25.3,36.1z"/>
	</g>
	<g>
		<path class="st0" d="M24.2,36.1L24.2,36.1l0.6-2.4c0.3-1.3,1.3-2,2.3-1.5l0,0l-0.6,2.4C26.1,35.9,25.1,36.5,24.2,36.1z"/>
	</g>
	<g>
		<path class="st0" d="M28.8,36.1L28.8,36.1l-0.6-2.4c-0.3-1.3-1.3-2-2.3-1.5l0,0l0.6,2.4C26.8,35.9,27.8,36.5,28.8,36.1z"/>
	</g>
	<g>
		<path class="st0" d="M27.6,36.1L27.6,36.1l0.6-2.4c0.3-1.3,1.3-2,2.3-1.5l0,0l-0.6,2.4C29.6,35.9,28.5,36.5,27.6,36.1z"/>
	</g>
	<g>
		<path class="st0" d="M32.2,36.1L32.2,36.1l-0.6-2.4c-0.3-1.3-1.3-2-2.3-1.5l0,0l0.6,2.4C30.3,35.9,31.3,36.5,32.2,36.1z"/>
	</g>
	<g>
		<path class="st0" d="M31.1,36.1L31.1,36.1l0.6-2.4c0.3-1.3,1.3-2,2.3-1.5l0,0l-0.6,2.4C33,35.9,32,36.5,31.1,36.1z"/>
	</g>
</g>
<g>
	<g>
		<path class="st0" d="M11,20.7c-4.2,0-7.6-3.4-7.6-7.6S6.8,5.6,11,5.6s7.6,3.4,7.6,7.6S15.2,20.7,11,20.7z M11,7.3
			c-3.2,0-5.9,2.6-5.9,5.9c0,3.2,2.6,5.9,5.9,5.9s5.9-2.6,5.9-5.9C16.9,9.9,14.3,7.3,11,7.3z"/>
	</g>
	<g>
		<path class="st0" d="M29.2,23c-0.1,0-0.1,0-0.2,0c-0.5-0.1-0.7-0.6-0.6-1c0-0.1,0.1-0.2,0.1-0.3c0.1-0.4,0.4-1.1,0.1-1.5
			c-0.2-0.2-0.8-0.7-3-0.6c-2.2,0.2-3.6-1.2-3.7-2.6c-0.1-1.6,1.3-3.3,4.7-3.5c2.5-0.2,3.8-1.3,3.9-2.3c0.2-1.2-1.2-2.5-3.5-3.3
			C23.1,6.5,15.1,6.2,9.6,7.3c-0.5,0.1-0.9-0.2-1-0.7c-0.1-0.5,0.2-0.9,0.7-1c5.9-1.2,14.1-0.9,18.3,0.5c3.2,1.1,4.9,3.1,4.7,5.2
			c-0.3,2-2.4,3.5-5.5,3.7c-2.3,0.2-3.2,1-3.2,1.7c0,0.6,0.8,1.1,1.9,1c2.3-0.1,3.7,0.3,4.5,1.2c0.8,1.1,0.4,2.5,0.2,3.1
			c0,0.1,0,0.1-0.1,0.2C29.9,22.7,29.6,23,29.2,23z"/>
	</g>
	<g>
		<path class="st0" d="M13.9,19c-1.4,0-3.4-0.3-5.6-1.5C4.2,15,4,10.4,4,10.2c0-0.5,0.4-0.8,0.8-0.9c0.4,0,0.8,0.4,0.9,0.8l0,0
			c0,0.2,0.1,3.9,3.5,5.9c3.2,1.8,6.1,1.2,6.1,1.2c0.5-0.1,0.9,0.2,1,0.6c0.1,0.5-0.2,0.9-0.6,1C15.6,18.9,14.9,19,13.9,19z"/>
	</g>
	<g>
		<path class="st0" d="M6.6,15c-0.2,0-0.4-0.1-0.6-0.2c-0.3-0.3-0.4-0.8,0-1.2c0,0,1-1.1,1.4-3.3c0.2-1.1-0.5-2.1-0.5-2.1
			C6.6,7.7,6.7,7.2,7.1,6.9C7.4,6.7,8,6.7,8.2,7.1c0,0.1,1.1,1.6,0.8,3.4c-0.5,2.7-1.8,4.2-1.8,4.2C7.1,14.9,6.9,15,6.6,15z"/>
	</g>
	<g>
		<path class="st0" d="M9.1,17.4c-0.2,0-0.4-0.1-0.6-0.2c-0.3-0.3-0.4-0.8-0.1-1.2c0,0,1.6-1.8,2.1-5.2c0.3-2-0.8-3.5-0.8-3.5
			C9.6,6.9,9.6,6.3,10,6.1c0.4-0.3,0.9-0.2,1.2,0.2c0.1,0.1,1.5,2.1,1.1,4.7c-0.6,3.9-2.5,6-2.6,6.1C9.5,17.3,9.3,17.4,9.1,17.4z"/>
	</g>
	<g>
		<path class="st0" d="M14.6,19c-0.4,0-0.8-0.3-0.8-0.8c0,0-0.2-2.1-1.1-3.6c-0.9-1.5-1.8-2-1.8-2c-0.4-0.2-0.6-0.7-0.4-1.1
			c0.2-0.4,0.7-0.6,1.1-0.4c0.1,0.1,1.4,0.7,2.5,2.6c1.2,1.8,1.4,4.2,1.4,4.3C15.5,18.5,15.2,18.9,14.6,19C14.7,19,14.6,19,14.6,19z
			"/>
	</g>
	<g>
		<path class="st0" d="M17.3,16.4c-0.4,0-0.7-0.3-0.8-0.6c0,0-0.5-2-2-4.1c-1.4-1.7-3.3-2.3-3.3-2.3c-0.4-0.1-0.7-0.6-0.6-1
			c0.1-0.4,0.6-0.7,1-0.6c0.1,0,2.5,0.7,4.2,2.9c1.8,2.4,2.3,4.6,2.3,4.7c0.1,0.5-0.2,0.9-0.6,1C17.4,16.4,17.4,16.4,17.3,16.4z"/>
	</g>
	<g>
		<path class="st0" d="M5.7,18.2c-0.3,0-0.6-0.2-0.8-0.5c-0.2-0.4,0-0.9,0.4-1.1c0.1-0.1,0.5-0.3,0.8-0.5c0.3-0.2,0.4-0.6,0.4-0.6
			c0.1-0.4,0.6-0.7,1-0.6c0.4,0.1,0.7,0.6,0.6,1c0,0.1-0.3,0.9-0.9,1.4c-0.5,0.4-1.1,0.7-1.2,0.7C5.9,18.2,5.8,18.2,5.7,18.2z"/>
	</g>
	<g>
		<path class="st0" d="M9.3,20.3c-0.2,0-0.5-0.1-0.6-0.3c-0.3-0.4-0.2-0.9,0.1-1.2c0.1-0.1,0.4-0.4,0.5-0.7c0.2-0.4,0.2-0.8,0.2-0.8
			c0-0.5,0.4-0.9,0.9-0.8c0.5,0,0.8,0.4,0.8,0.8c0,0.1,0,0.8-0.4,1.6c-0.3,0.6-0.9,1.1-0.9,1.2C9.7,20.2,9.5,20.3,9.3,20.3z"/>
	</g>
	<g>
		<path class="st0" d="M32.5,15.6c-0.2,0-0.4-0.1-0.6-0.2c-0.3-0.3-0.3-0.9,0-1.2c0.5-0.5,1.2-1.4,1.3-2.7c0.4-4.1-4.1-5.7-4.3-5.8
			c-0.4-0.2-0.7-0.6-0.5-1.1C28.5,4.1,29,3.9,29.5,4c2.1,0.7,5.9,3.2,5.4,7.5c-0.1,1.8-1,3-1.8,3.8C33,15.5,32.8,15.6,32.5,15.6z"/>
	</g>
	<g>
		<path class="st0" d="M29.4,6.8c-0.4,0-0.7-0.2-0.8-0.6l-0.5-2l1.8-0.8c0.4-0.2,0.9,0,1.1,0.4c0.2,0.4,0,0.9-0.4,1.1l-0.5,0.2
			l0.1,0.6c0.1,0.4-0.1,0.9-0.6,1C29.6,6.8,29.5,6.8,29.4,6.8z"/>
	</g>
</g>
<path class="st1" d="M29.3,38.8H10.7c-5.2,0-9.5-4.2-9.5-9.5V10.7c0-5.2,4.2-9.5,9.5-9.5h18.6c5.2,0,9.5,4.2,9.5,9.5v18.6
	C38.8,34.5,34.5,38.8,29.3,38.8z"/>
</svg>
