<?xml version="1.0" encoding="utf-8"?>
<!-- Generator: Adobe Illustrator 25.0.1, SVG Export Plug-In . SVG Version: 6.00 Build 0)  -->
<svg version="1.1" id="Layer_1" xmlns="http://www.w3.org/2000/svg" xmlns:xlink="http://www.w3.org/1999/xlink" x="0px" y="0px"
	 viewBox="0 0 40.3 40.3" style="enable-background:new 0 0 40.3 40.3;" xml:space="preserve">
<style type="text/css">
	.st0{fill:#8CA1EF;}
</style>
<path class="st0" d="M34.7,22.3c0-7.4-6-13.4-13.4-13.4c0,0-0.1,0-0.1,0l-0.1,0l-0.1,0c0,0-0.1,0-0.3,0c0,0,0,0,0,0
	c-0.7,0-2.6,0.1-4.7,1c-2.7,1.2-3.9,2.4-4.2,2.9c0,0-0.1,0.1-0.1,0.1c-2.4,2.4-3.8,5.7-3.8,9.3c0,5.1,2.8,9.5,7,11.7
	c-1.2-0.3-2.6-0.6-4.3-0.6c-1.6,0-2.9,0.5-3.8,1.4c-1.3,1.4-1.3,3.3-1.2,3.4c0,0.5,0.5,1,1,1c0,0,0,0,0.1,0c0.6,0,1-0.5,1-1
	c0,0,0-1.1,0.7-1.9c0.5-0.5,1.3-0.8,2.3-0.8c1.7,0,2.9,0.3,4.2,0.7c1.8,0.5,3.7,0.9,6.6,0.5c5.6-0.8,8.7-4.3,8.8-4.4c0,0,0,0,0,0
	C33,29.7,34.7,26.2,34.7,22.3z M12.4,29.3c1-0.1,2.3-0.5,4-1.2c0.7-0.3,1.4-0.6,2-0.9c0.2,0.3,0.4,0.6,0.7,1
	c0.2,0.2,0.3,0.3,0.5,0.4c-0.4,0.3-1,0.6-1.7,1c-2.1,1.1-3.5,1.1-4,1.1C13.3,30.4,12.9,29.9,12.4,29.3z M21,10.9
	c0,0.1-0.1,0.2-1.3,0.5c-1.6,0.4-1.5,1.2-0.6,1.2c0.1,0,0.2,0,0.3,0c0.2,0,0.3,0,0.5,0c1.1,0,2.3,0.6,2.4,1.6
	c0.1,1.2-0.9,1.4-1.1,2.6C20.9,18,22.2,20,22,20.2c-0.1,0.1-0.1,0.1-0.2,0.1c-0.2,0-0.4-0.2-0.9-0.8c-0.2-0.3-0.6-0.4-0.9-0.4
	c-0.8,0-1.8,0.6-2.2,1.2c-0.7,0.9,0.1,1.7,1.9,2.3c0.4,0.1,0.7,0.2,1,0.2c0.3,0,0.7-0.1,1.4-0.3c0.5-0.1,0.9-0.2,1.2-0.2
	c1.1,0,1.6,0.5,2.2,1.2c0.7,0.9,1,2.7-0.4,5.3c-1.1,2.1-1.4,3.7-1.5,4.4c-0.1,0-0.3,0.1-0.4,0.1c0.1-0.8,0.2-2.1,0.1-3.5
	c-0.2-2-1.8-2.2-2.7-3.1c-0.9-1-0.1-1.8-0.5-2.5c-0.5-1-1.1-1-2.9-1.3c-1.8-0.4-2.7-2.7-2.5-4c0.2-1.7,0.2-3.1-0.4-4.1
	c-0.4-0.6-0.6-0.8-0.8-0.8c0,0,0,0,0,0C15.3,12.2,18,11,21,10.9z M23.3,16.8c0.3-0.3,0.7-0.9,0.9-1.6c0.5,0.2,1,0.4,1.5,0.6
	c2.2,1,2.8,1.8,3,2c-0.3,0.2-0.6,0.5-0.9,0.7c-0.1,0.1-0.2,0.2-0.3,0.2c-0.5-0.4-1.3-0.8-2.5-1.2c-0.7-0.2-1.3-0.4-1.9-0.5
	C23.2,17,23.2,16.9,23.3,16.8z M28.7,17.7L28.7,17.7C28.7,17.7,28.7,17.7,28.7,17.7C28.7,17.7,28.7,17.7,28.7,17.7z M32,26
	c-0.9,0.2-2.6,0.5-4.3,1.3c0.1-0.6,0.2-1.1,0.2-1.6c0,0,0,0,0-0.1c0.6-0.6,1.2-1.2,1.8-1.6c1.1-0.7,2.2-0.9,2.8-0.9
	C32.5,24.1,32.3,25.1,32,26z M23.9,19.3C23.9,19.3,23.9,19.3,23.9,19.3c0.1,0,0.3,0.1,0.5,0.1c0.9,0.3,1.5,0.6,1.8,0.8
	c-0.2,0.3-0.4,0.6-0.6,0.9c-0.4-0.3-1-0.5-1.6-0.6C24,20.1,24,19.7,23.9,19.3z M28.7,22.4c-0.4,0.3-0.8,0.6-1.2,0.9
	c-0.1-0.2-0.3-0.5-0.4-0.7c0.5-0.8,1.1-1.8,2.1-2.6c1-0.9,2.1-1.3,2.9-1.5c0.3,0.9,0.5,1.7,0.6,2.7C31.7,21.2,30.2,21.4,28.7,22.4z
	 M11.5,16.5c0.2,0,0.4,0.1,0.7,0.1c0.2,0,0.3,0,0.5,0c0.1,0.5,0.1,1.3,0,2.2c-0.3,0.1-0.6,0.2-0.9,0.4c-0.7,0.3-1.2,0.4-1.5,0.4
	C10.6,18.4,11,17.4,11.5,16.5z M10,21.5c1,0,2-0.3,2.5-0.5c0.1,0,0.2-0.1,0.4-0.1c0.2,0.7,0.5,1.4,0.9,2c-0.3,0.1-0.6,0.2-0.9,0.4
	c-1.6,0.6-2.4,0.6-2.8,0.5c-0.1-0.5-0.1-1-0.1-1.5C9.9,22,10,21.7,10,21.5C10,21.5,10,21.5,10,21.5z M10.5,25.8c0.8,0,1.7-0.2,3-0.7
	c0.7-0.2,1.3-0.5,1.8-0.7c0.4,0.3,0.9,0.5,1.5,0.6c0.3,0.1,0.5,0.1,0.8,0.2c0.2,0,0.4,0.1,0.5,0.1c-0.6,0.3-1.4,0.7-2.4,1.1
	c-2.9,1.1-4.1,1.2-4.5,1.1C10.9,26.9,10.7,26.4,10.5,25.8z M18.7,31.5c1-0.5,1.8-1,2.5-1.5c0,0.1,0,0.1,0,0.2c0.1,0.7,0,1.3,0,1.9
	c-0.2,0.1-0.3,0.2-0.5,0.3c-1.5,0.9-2.4,0.8-2.4,0.8c0,0,0,0,0,0l0,0c-0.7-0.2-1.3-0.4-2-0.7C17,32.3,17.8,32,18.7,31.5z M25.7,32.7
	c0.2-0.6,0.4-1.4,0.9-2.4c0.6-0.4,1.1-0.7,1.8-1c0.9-0.4,1.8-0.7,2.5-1C29.7,30.2,27.9,31.8,25.7,32.7z M31.1,16.6
	c-0.2,0.1-0.4,0.1-0.6,0.2c-0.3-0.5-1.1-1.6-3.9-2.9c-0.9-0.4-1.7-0.7-2.5-0.9c-0.2-0.6-0.6-1.1-1.1-1.5C23,11.3,23,11.2,23,11
	C26.5,11.5,29.4,13.7,31.1,16.6z"/>
</svg>
