<?xml version="1.0" encoding="utf-8"?>
<!-- Generator: Adobe Illustrator 25.1.0, SVG Export Plug-In . SVG Version: 6.00 Build 0)  -->
<svg version="1.1" id="Layer_1" xmlns="http://www.w3.org/2000/svg" xmlns:xlink="http://www.w3.org/1999/xlink" x="0px" y="0px"
	 viewBox="0 0 40 40" style="enable-background:new 0 0 40 40;" xml:space="preserve">
<style type="text/css">
	.st0{fill:#449B45;}
	.st1{fill:#4CB852;}
	.st2{fill:#FFFFFF;}
	.st3{fill:#637A87;}
	.st4{fill:#628FCA;}
</style>
<g>
	<path class="st0" d="M13.64,39.32l-0.81,0.25c-0.86,0.26-1.77-0.22-2.03-1.07L1.26,7.64C1,6.78,1.48,5.87,2.34,5.61l0.81-0.25
		C4,5.09,4.91,5.57,5.18,6.43l9.53,30.86C14.98,38.14,14.49,39.05,13.64,39.32z"/>
	<path class="st1" d="M38.11,17.85C31.88,29.4,17.5,14.6,11.27,26.14C9.46,20.29,7.65,14.44,5.84,8.58
		c6.23-11.55,20.61,3.25,26.84-8.29C34.49,6.14,36.3,12,38.11,17.85z"/>
</g>
<g>
	<g>
		<g>
			<path class="st2" d="M17.58,21.12c-0.25,0.02-0.51-0.04-0.72-0.19l-2.33-1.6c-0.24-0.16-0.4-0.41-0.45-0.69
				c-0.05-0.28,0.01-0.57,0.17-0.81l0.32-0.46c0.18-0.26,0.47-0.44,0.79-0.47c0.25-0.02,0.51,0.04,0.72,0.19l0.13,0.09l7.2-10.5
				c0.23-0.34,0.56-0.63,0.94-0.81l0.91-0.46c0.06-0.03,0.12-0.04,0.18-0.05c0.15-0.01,0.3,0.03,0.41,0.15
				C25.96,5.6,26.01,5.75,26,5.9l-0.1,1.02c-0.04,0.42-0.19,0.82-0.43,1.17l-7.2,10.5l0.13,0.09c0.24,0.16,0.4,0.41,0.45,0.69
				c0.05,0.28-0.01,0.57-0.17,0.81l-0.32,0.46C18.19,20.91,17.91,21.08,17.58,21.12z"/>
			<path class="st3" d="M25.46,5.57c0.16-0.02,0.32,0.12,0.3,0.3l-0.1,1.02c-0.04,0.38-0.17,0.74-0.38,1.06l-7.32,10.69l0.33,0.22
				c0.38,0.27,0.48,0.8,0.22,1.18l-0.32,0.46c-0.15,0.21-0.38,0.34-0.62,0.37c-0.19,0.02-0.39-0.03-0.56-0.14l-2.33-1.6
				c-0.38-0.27-0.48-0.8-0.22-1.18l0.32-0.46c0.15-0.21,0.38-0.34,0.62-0.37c0.19-0.02,0.39,0.03,0.56,0.14l0.33,0.22L23.6,6.8
				c0.22-0.32,0.51-0.57,0.85-0.74l0.91-0.46C25.39,5.58,25.43,5.57,25.46,5.57 M25.41,5.1c-0.09,0.01-0.18,0.04-0.26,0.08
				l-0.91,0.46c-0.41,0.21-0.76,0.51-1.02,0.9l-7.06,10.31c-0.24-0.15-0.53-0.22-0.82-0.19c-0.39,0.04-0.74,0.24-0.96,0.57
				l-0.32,0.46c-0.41,0.6-0.26,1.43,0.35,1.84l2.33,1.6c0.25,0.17,0.57,0.25,0.87,0.22c0.39-0.04,0.74-0.24,0.96-0.57l0.32-0.46
				c0.2-0.29,0.27-0.64,0.21-0.99c-0.06-0.32-0.24-0.61-0.49-0.8l7.05-10.31c0.26-0.38,0.42-0.82,0.47-1.28l0.1-1.02
				c0.02-0.23-0.06-0.44-0.21-0.6C25.86,5.16,25.63,5.08,25.41,5.1L25.41,5.1z"/>
		</g>
		<g>
			<path class="st4" d="M15.93,17.26l2.36,1.62c0.38,0.26,0.47,0.78,0.21,1.16l-0.34,0.5c-0.26,0.38-0.78,0.47-1.16,0.21l-2.35-1.62
				c-0.38-0.26-0.47-0.78-0.21-1.16l0.34-0.5C15.03,17.1,15.55,17,15.93,17.26z"/>
		</g>
	</g>
	<g>
		<g>
			<path class="st2" d="M27.81,20.18c-0.32,0.03-0.64-0.08-0.86-0.31l-0.4-0.39c-0.21-0.2-0.32-0.48-0.33-0.77s0.1-0.57,0.31-0.77
				l0.11-0.11l-9.1-8.91c-0.3-0.29-0.53-0.67-0.64-1.07L16.6,6.87c-0.04-0.15-0.02-0.31,0.06-0.43c0.09-0.13,0.22-0.21,0.37-0.22
				c0.06-0.01,0.13,0,0.19,0.01l0.98,0.27c0.4,0.11,0.78,0.32,1.08,0.62l9.09,8.91l0.11-0.11c0.17-0.18,0.41-0.3,0.67-0.32
				c0.32-0.03,0.64,0.08,0.86,0.31l0.4,0.39c0.43,0.42,0.43,1.11,0.02,1.53l-1.98,2.02C28.3,20.03,28.07,20.15,27.81,20.18z"/>
			<path class="st3" d="M17.07,6.46c0.03,0,0.06,0,0.1,0.01l0.98,0.27c0.37,0.1,0.7,0.29,0.98,0.56l9.26,9.07l0.28-0.28
				c0.15-0.15,0.33-0.23,0.53-0.25c0.24-0.02,0.49,0.05,0.68,0.24l0.4,0.39c0.34,0.33,0.34,0.87,0.02,1.2l-1.98,2.02
				c-0.15,0.15-0.33,0.23-0.53,0.25c-0.24,0.02-0.49-0.05-0.68-0.24l-0.4-0.39c-0.34-0.33-0.34-0.87-0.02-1.2l0.28-0.28l-9.27-9.08
				c-0.27-0.27-0.47-0.6-0.58-0.96L16.84,6.8C16.78,6.63,16.91,6.47,17.07,6.46 M17.03,5.99L17.03,5.99
				c-0.22,0.02-0.42,0.14-0.55,0.33c-0.13,0.19-0.16,0.41-0.09,0.63l0.29,0.98c0.13,0.44,0.38,0.85,0.71,1.17l8.93,8.75
				c-0.46,0.52-0.43,1.32,0.07,1.82l0.4,0.39c0.28,0.28,0.67,0.41,1.05,0.37c0.31-0.03,0.6-0.17,0.81-0.39l1.98-2.02
				c0.24-0.25,0.38-0.59,0.38-0.94c0-0.35-0.14-0.68-0.4-0.93l-0.4-0.39c-0.28-0.28-0.67-0.41-1.05-0.37
				c-0.29,0.03-0.55,0.15-0.76,0.34l-8.93-8.75c-0.33-0.32-0.73-0.56-1.18-0.68L17.3,6.01C17.21,5.99,17.12,5.98,17.03,5.99
				L17.03,5.99z"/>
		</g>
		<g>
			<path class="st4" d="M26.68,18.12l2-2.05c0.32-0.33,0.85-0.33,1.18-0.01l0.43,0.42c0.33,0.32,0.33,0.85,0.01,1.18l-2,2.05
				c-0.32,0.33-0.85,0.33-1.18,0.01L26.7,19.3C26.36,18.98,26.36,18.45,26.68,18.12z"/>
		</g>
	</g>
</g>
</svg>
