<?xml version="1.0" encoding="utf-8"?>
<!-- Generator: Adobe Illustrator 25.1.0, SVG Export Plug-In . SVG Version: 6.00 Build 0)  -->
<svg version="1.1" id="Layer_1" xmlns="http://www.w3.org/2000/svg" xmlns:xlink="http://www.w3.org/1999/xlink" x="0px" y="0px"
	 viewBox="0 0 50 50" style="enable-background:new 0 0 50 50;" xml:space="preserve">
<style type="text/css">
	.st0{opacity:0.1;fill:#94BBFF;enable-background:new    ;}
	.st1{fill:#FFFFFF;}
</style>
<path class="st0" d="M36.11,7.85c3.34,0,6.04,2.7,6.04,6.04v22.22c0,3.34-2.7,6.04-6.04,6.04H13.89c-3.34,0-6.04-2.7-6.04-6.04
	V13.89c0-3.34,2.7-6.04,6.04-6.04H36.11"/>
<path class="st0" d="M36.11,3.85H13.89c-5.54,0-10.04,4.5-10.04,10.04v22.22c0,5.54,4.5,10.04,10.04,10.04h22.22
	c5.54,0,10.04-4.5,10.04-10.04V13.89C46.15,8.35,41.65,3.85,36.11,3.85L36.11,3.85z"/>
<path class="st1" d="M36.11,7.85H13.89c-3.34,0-6.04,2.7-6.04,6.04v22.22c0,3.34,2.7,6.04,6.04,6.04h22.22
	c3.34,0,6.04-2.7,6.04-6.04V13.89C42.15,10.55,39.45,7.85,36.11,7.85z"/>
</svg>
