<?xml version="1.0" encoding="utf-8"?>
<!-- Generator: Adobe Illustrator 25.0.1, SVG Export Plug-In . SVG Version: 6.00 Build 0)  -->
<svg version="1.1" id="Layer_1" xmlns="http://www.w3.org/2000/svg" xmlns:xlink="http://www.w3.org/1999/xlink" x="0px" y="0px"
	 viewBox="0 0 40 40" style="enable-background:new 0 0 40 40;" xml:space="preserve">
<style type="text/css">
	.st0{fill:#8CA1EF;}
	.st1{fill:#FFFFFF;}
</style>
<g>
	<path class="st0" d="M12.1,34.6l-0.6,0.2C10.9,35,10.2,34.6,10,34L2.8,10.7C2.6,10,2.9,9.3,3.6,9.1l0.6-0.2
		c0.6-0.2,1.3,0.2,1.5,0.8L12.9,33C13.1,33.7,12.8,34.4,12.1,34.6z"/>
	<path class="st1" d="M30.6,18.4c-4.7,8.7-15.6-2.5-20.3,6.3c-1.4-4.4-2.7-8.8-4.1-13.3c4.7-8.7,15.6,2.5,20.3-6.3
		C27.9,9.5,29.2,14,30.6,18.4z"/>
</g>
<path class="st0" d="M23.1,14c-0.2-2.5-2.3-4.3-4.8-4.1l0,0l0,0l0,0c0,0,0,0-0.1,0l0,0c-0.2,0-0.9,0.1-1.5,0.5
	c-0.9,0.5-1.2,0.9-1.3,1.1l0,0c-0.7,0.9-1.1,2-1,3.2c0.1,1.7,1.2,3.1,2.6,3.8c-0.4-0.1-0.9-0.1-1.4-0.1c-0.5,0-0.9,0.2-1.2,0.6
	c-0.4,0.5-0.3,1.1-0.3,1.2c0,0.2,0.2,0.3,0.4,0.3l0,0c0.2,0,0.3-0.2,0.3-0.4c0,0,0-0.4,0.2-0.6s0.4-0.3,0.8-0.3c0.6,0,1,0,1.4,0.1
	c0.6,0.1,1.3,0.2,2.2,0c1.8-0.4,2.8-1.6,2.8-1.7l0,0C22.7,16.5,23.2,15.3,23.1,14z M15.8,16.9c0.3-0.1,0.7-0.2,1.3-0.5
	c0.2-0.1,0.5-0.2,0.6-0.3c0.1,0.1,0.1,0.2,0.3,0.3c0.1,0,0.1,0.1,0.2,0.1c-0.1,0.1-0.3,0.2-0.6,0.4c-0.7,0.4-1.1,0.5-1.3,0.5
	C16.1,17.2,16,17.1,15.8,16.9z M18.2,10.5c0,0,0,0.1-0.4,0.2c-0.5,0.2-0.5,0.4-0.2,0.4h0.1c0,0,0.1,0,0.2,0c0.4,0,0.8,0.1,0.9,0.5
	s-0.3,0.5-0.3,0.9c-0.1,0.4,0.5,1.1,0.4,1.1c0,0,0,0-0.1,0s-0.1-0.1-0.3-0.2c-0.1-0.1-0.2-0.1-0.3-0.1c-0.3,0-0.6,0.3-0.7,0.5
	c-0.2,0.3,0.1,0.6,0.7,0.7c0.1,0,0.2,0.1,0.3,0c0.1,0,0.2,0,0.5-0.1c0.2-0.1,0.3-0.1,0.4-0.1c0.4,0,0.5,0.1,0.8,0.4
	c0.3,0.3,0.4,0.9,0,1.8c-0.3,0.7-0.4,1.3-0.4,1.5h-0.1c0-0.3,0-0.7,0-1.2c-0.1-0.7-0.7-0.7-1-1c-0.3-0.3-0.1-0.6-0.2-0.8
	c-0.2-0.3-0.4-0.3-1-0.4c-0.6-0.1-1-0.8-0.9-1.3c0-0.6,0-1-0.2-1.4c-0.1-0.2-0.2-0.2-0.3-0.2l0,0C16.4,11.1,17.2,10.6,18.2,10.5z
	 M19.1,12.4c0.1-0.1,0.2-0.3,0.2-0.6c0.2,0,0.3,0.1,0.5,0.2c0.7,0.3,1,0.5,1,0.6c-0.1,0.1-0.2,0.2-0.3,0.3L20.4,13
	c-0.2-0.1-0.5-0.2-0.9-0.3C19.5,12.6,19.3,12.5,19.1,12.4C19.1,12.5,19.1,12.5,19.1,12.4z M21,12.6L21,12.6L21,12.6L21,12.6z
	 M22.3,15.3c-0.3,0.1-0.8,0.2-1.4,0.6c0-0.2,0-0.4,0-0.5l0,0c0.2-0.2,0.4-0.4,0.6-0.6c0.3-0.3,0.7-0.3,0.9-0.4
	C22.4,14.7,22.4,15,22.3,15.3z M19.4,13.3L19.4,13.3c0.1,0,0.1,0,0.2,0c0.3,0.1,0.5,0.2,0.6,0.2c-0.1,0.1-0.1,0.2-0.2,0.3
	c-0.2-0.1-0.3-0.2-0.6-0.2C19.5,13.5,19.4,13.4,19.4,13.3z M21.1,14.2c-0.1,0.1-0.3,0.2-0.4,0.3c0-0.1-0.1-0.2-0.2-0.2
	c0.1-0.3,0.3-0.6,0.6-0.9c0.3-0.3,0.7-0.5,0.9-0.6c0.1,0.3,0.2,0.6,0.3,0.9C22,13.7,21.5,13.8,21.1,14.2z M15.2,12.6
	c0.1,0,0.1,0,0.2,0s0.1,0,0.2,0c0,0.2,0.1,0.4,0,0.7c-0.1,0-0.2,0.1-0.3,0.1c-0.2,0.1-0.4,0.1-0.5,0.2C14.9,13.3,15,13,15.2,12.6z
	 M14.8,14.3c0.3,0,0.7-0.2,0.8-0.2c0,0,0.1,0,0.1-0.1c0.1,0.2,0.2,0.5,0.4,0.7c-0.1,0-0.2,0.1-0.3,0.1C15.3,15,15,15.1,14.9,15
	c0-0.2-0.1-0.3-0.1-0.5C14.8,14.5,14.8,14.4,14.8,14.3L14.8,14.3z M15.1,15.8c0.3,0,0.6-0.1,1-0.3c0.2-0.1,0.4-0.2,0.6-0.3
	c0.2,0.1,0.3,0.1,0.5,0.2c0.1,0,0.2,0,0.3,0c0.1,0,0.1,0,0.2,0c-0.2,0.1-0.5,0.3-0.8,0.4c-0.9,0.5-1.3,0.5-1.5,0.5
	C15.2,16.1,15.1,15.9,15.1,15.8z M18,17.5c0.3-0.2,0.6-0.4,0.8-0.6c0,0,0,0,0,0.1c0,0.2,0,0.4,0,0.6c-0.1,0-0.1,0.1-0.2,0.1
	C18.1,18,17.8,18,17.8,18l0,0l0,0c-0.2,0-0.5-0.1-0.7-0.2C17.4,17.8,17.7,17.6,18,17.5z M20.3,17.7c0-0.2,0.1-0.5,0.2-0.8
	c0.2-0.1,0.4-0.3,0.6-0.4c0.3-0.2,0.6-0.3,0.8-0.4C21.6,16.8,21,17.3,20.3,17.7z M21.7,12.2c-0.1,0-0.1,0.1-0.2,0.1
	c-0.1-0.1-0.4-0.5-1.4-0.9c-0.3-0.1-0.6-0.2-0.9-0.2c-0.1-0.2-0.2-0.4-0.4-0.5c0-0.1,0-0.1,0-0.2C20.1,10.6,21.1,11.2,21.7,12.2z"/>
</svg>
