<?xml version="1.0" encoding="utf-8"?>
<!-- Generator: Adobe Illustrator 25.0.1, SVG Export Plug-In . SVG Version: 6.00 Build 0)  -->
<svg version="1.1" id="Layer_1" xmlns="http://www.w3.org/2000/svg" xmlns:xlink="http://www.w3.org/1999/xlink" x="0px" y="0px"
	 viewBox="0 0 40 40" style="enable-background:new 0 0 40 40;" xml:space="preserve">
<style type="text/css">
	.st0{fill:#FFFFFF;}
	.st1{fill:none;stroke:#FFFFFF;stroke-width:2;stroke-linecap:round;stroke-miterlimit:10;}
</style>
<g>
	<path class="st0" d="M19.2,26.2L19.2,26.2l-0.7-2.9c-0.4-1.6-1.5-2.4-2.7-1.8l0,0l0.7,2.9C16.9,25.9,18.1,26.8,19.2,26.2z"/>
	<path class="st0" d="M17.8,26.2L17.8,26.2l0.7-2.9c0.4-1.6,1.5-2.4,2.7-1.8l0,0l-0.7,2.9C20.2,25.9,19,26.8,17.8,26.2z"/>
	<path class="st0" d="M23.3,26.2L23.3,26.2l-0.7-2.9c-0.4-1.6-1.5-2.4-2.7-1.8l0,0l0.7,2.9C20.9,25.9,22.2,26.8,23.3,26.2z"/>
	<path class="st0" d="M21.9,26.2L21.9,26.2l0.7-2.9c0.4-1.6,1.5-2.4,2.7-1.8l0,0l-0.7,2.9C24.2,25.9,23,26.8,21.9,26.2z"/>
	<path class="st0" d="M27.3,26.2L27.3,26.2l-0.7-2.9c-0.4-1.6-1.5-2.4-2.7-1.8l0,0l0.7,2.9C25,25.9,26.2,26.8,27.3,26.2z"/>
	<path class="st0" d="M26,26.2L26,26.2l0.7-2.9c0.4-1.6,1.5-2.4,2.7-1.8l0,0l-0.7,2.9C28.3,25.9,27,26.8,26,26.2z"/>
	<path class="st0" d="M31.4,26.2L31.4,26.2l-0.7-2.9c-0.4-1.6-1.5-2.4-2.7-1.8l0,0l0.7,2.9C29.1,25.9,30.3,26.8,31.4,26.2z"/>
	<path class="st0" d="M30,26.2L30,26.2c0,0,0.4-1.8,0.7-2.9c0.7-2.1,1.5-1.9,2.5-1.4l-0.6,2.4C32.4,25.9,31.1,26.8,30,26.2z"/>
	<path class="st0" d="M19.2,30.5L19.2,30.5l-0.7-2.9c-0.4-1.6-1.5-2.4-2.7-1.8l0,0l0.7,2.9C16.9,30.4,18.1,31.1,19.2,30.5z"/>
	<path class="st0" d="M17.8,30.5L17.8,30.5l0.7-2.9c0.4-1.6,1.5-2.4,2.7-1.8l0,0l-0.7,2.9C20.2,30.4,19,31.1,17.8,30.5z"/>
	<path class="st0" d="M23.3,30.5L23.3,30.5l-0.7-2.9c-0.4-1.6-1.5-2.4-2.7-1.8l0,0l0.7,2.9C20.9,30.4,22.2,31.1,23.3,30.5z"/>
	<path class="st0" d="M21.9,30.5L21.9,30.5l0.7-2.9c0.4-1.6,1.5-2.4,2.7-1.8l0,0l-0.7,2.9C24.2,30.4,23,31.1,21.9,30.5z"/>
	<path class="st0" d="M27.3,30.5L27.3,30.5l-0.7-2.9c-0.4-1.6-1.5-2.4-2.7-1.8l0,0l0.7,2.9C25,30.4,26.2,31.1,27.3,30.5z"/>
	<path class="st0" d="M26,30.5L26,30.5l0.7-2.9c0.4-1.6,1.5-2.4,2.7-1.8l0,0l-0.7,2.9C28.3,30.4,27,31.1,26,30.5z"/>
	<path class="st0" d="M31.4,30.5L31.4,30.5l-0.7-2.9c-0.4-1.6-1.5-2.4-2.7-1.8l0,0l0.7,2.9C29.1,30.4,30.3,31.1,31.4,30.5z"/>
	<path class="st0" d="M30,30.5L30,30.5l0.7-2.9c0.4-1.6,1.5-2.4,2.7-1.8l0,0l-0.7,2.9C32.4,30.4,31.1,31.1,30,30.5z"/>
	<path class="st0" d="M35.5,30.5L35.5,30.5l-0.7-2.9c-0.4-1.6-1.5-2.4-2.7-1.8l0,0l0.7,2.9C33.2,30.4,34.4,31.1,35.5,30.5z"/>
	<path class="st0" d="M34.2,30.5L34.2,30.5l0.7-2.9c0.4-1.6,1.5-2.4,2.7-1.8l0,0l-0.7,2.9C36.5,30.4,35.3,31.1,34.2,30.5z"/>
	<path class="st0" d="M19.2,35L19.2,35l-0.7-2.9c-0.4-1.6-1.5-2.4-2.7-1.8l0,0l0.7,2.9C16.9,34.7,18.1,35.6,19.2,35z"/>
	<path class="st0" d="M17.8,35L17.8,35l0.7-2.9c0.4-1.6,1.5-2.4,2.7-1.8l0,0l-0.7,2.9C20.2,34.7,19,35.6,17.8,35z"/>
	<path class="st0" d="M23.3,35L23.3,35l-0.7-2.9c-0.4-1.6-1.5-2.4-2.7-1.8l0,0l0.7,2.9C20.9,34.7,22.2,35.6,23.3,35z"/>
	<path class="st0" d="M21.9,35L21.9,35l0.7-2.9c0.4-1.6,1.5-2.4,2.7-1.8l0,0l-0.7,2.9C24.2,34.7,23,35.6,21.9,35z"/>
	<path class="st0" d="M27.3,35L27.3,35l-0.7-2.9c-0.4-1.6-1.5-2.4-2.7-1.8l0,0l0.7,2.9C25,34.7,26.2,35.6,27.3,35z"/>
	<path class="st0" d="M26,35L26,35l0.7-2.9c0.4-1.6,1.5-2.4,2.7-1.8l0,0l-0.7,2.9C28.3,34.7,27,35.6,26,35z"/>
	<path class="st0" d="M31.4,35L31.4,35l-0.7-2.9c-0.4-1.6-1.5-2.4-2.7-1.8l0,0l0.7,2.9C29.1,34.7,30.3,35.6,31.4,35z"/>
	<path class="st0" d="M30,35L30,35l0.7-2.9c0.4-1.6,1.5-2.4,2.7-1.8l0,0l-0.7,2.9C32.4,34.7,31.1,35.6,30,35z"/>
	<path class="st0" d="M35.5,35L35.5,35l-0.7-2.9c-0.4-1.6-1.5-2.4-2.7-1.8l0,0l0.7,2.9C33.2,34.7,34.4,35.6,35.5,35z"/>
	<path class="st0" d="M34.2,35L34.2,35l0.7-2.9c0.4-1.6,1.5-2.4,2.7-1.8l0,0l-0.7,2.9C36.5,34.7,35.3,35.6,34.2,35z"/>
	<path class="st0" d="M19.2,39.4L19.2,39.4l-0.7-2.9c-0.4-1.6-1.5-2.4-2.7-1.8l0,0l0.7,2.9C16.9,39.1,18.1,39.9,19.2,39.4z"/>
	<path class="st0" d="M17.8,39.4L17.8,39.4l0.7-2.9c0.4-1.6,1.5-2.4,2.7-1.8l0,0l-0.7,2.9C20.2,39.1,19,39.9,17.8,39.4z"/>
	<path class="st0" d="M23.3,39.4L23.3,39.4l-0.7-2.9c-0.4-1.6-1.5-2.4-2.7-1.8l0,0l0.7,2.9C20.9,39.1,22.2,39.9,23.3,39.4z"/>
	<path class="st0" d="M21.9,39.4L21.9,39.4l0.7-2.9c0.4-1.6,1.5-2.4,2.7-1.8l0,0l-0.7,2.9C24.2,39.1,23,39.9,21.9,39.4z"/>
	<path class="st0" d="M27.3,39.4L27.3,39.4l-0.7-2.9c-0.4-1.6-1.5-2.4-2.7-1.8l0,0l0.7,2.9C25,39.1,26.2,39.9,27.3,39.4z"/>
	<path class="st0" d="M26,39.4L26,39.4l0.7-2.9c0.4-1.6,1.5-2.4,2.7-1.8l0,0l-0.7,2.9C28.3,39.1,27,39.9,26,39.4z"/>
	<path class="st0" d="M31.4,39.4L31.4,39.4l-0.7-2.9c-0.4-1.6-1.5-2.4-2.7-1.8l0,0l0.7,2.9C29.1,39.1,30.3,39.9,31.4,39.4z"/>
	<path class="st0" d="M30,39.4L30,39.4l0.7-2.9c0.4-1.6,1.5-2.4,2.7-1.8l0,0l-0.7,2.9C32.4,39.1,31.1,39.9,30,39.4z"/>
	<path class="st0" d="M35.5,39.4L35.5,39.4l-0.7-2.9c-0.4-1.6-1.5-2.4-2.7-1.8l0,0l0.7,2.9C33.2,39.1,34.4,39.9,35.5,39.4z"/>
	<path class="st0" d="M34.2,39.4L34.2,39.4l0.7-2.9c0.4-1.6,1.5-2.4,2.7-1.8l0,0l-0.7,2.9C36.5,39.1,35.3,39.9,34.2,39.4z"/>
</g>
<g>
	<circle class="st1" cx="10.3" cy="12.1" r="8"/>
	<path class="st1" d="M8.4,4.2C15,2.9,24.7,3.1,29.6,4.8c7.3,2.6,5.9,8.1-0.7,8.6c-6.6,0.5-5.5,5.6-1.4,5.3c6.5-0.4,4.6,3.3,4.4,4.1
		"/>
	<path class="st1" d="M3,8.6c0,0,0.1,5.1,4.6,7.8c4.2,2.4,8,1.5,8,1.5"/>
	<path class="st1" d="M6.2,5.5c0,0,1.1,1.5,0.8,3.3c-0.5,3-1.9,4.5-1.9,4.5"/>
	<path class="st1" d="M9.7,4.5c0,0,1.5,2.1,1.1,4.9C10.1,13.8,8,16.1,8,16.1"/>
	<path class="st1" d="M10.6,10.6c0,0,1.3,0.6,2.5,2.7c1.3,2,1.5,4.7,1.5,4.7"/>
	<path class="st1" d="M10.7,6.7c0,0,2.6,0.7,4.5,3.1c2,2.7,2.6,5.2,2.6,5.2"/>
	<path class="st1" d="M4,17.1c0,0,0.7-0.3,1.2-0.7c0.6-0.5,0.8-1.2,0.8-1.2"/>
	<path class="st1" d="M8.3,19.6c0,0,0.6-0.5,0.9-1.1c0.4-0.7,0.4-1.4,0.4-1.4"/>
	<path class="st1" d="M35.9,14c0.9-0.9,1.7-2.2,1.8-3.9c0.6-5.7-5.8-7.9-5.8-7.9"/>
	<polyline class="st1" points="32.2,3.5 31.8,2 33.2,1.4 	"/>
</g>
</svg>
