<?xml version="1.0" encoding="utf-8"?>
<!-- Generator: Adobe Illustrator 25.0.1, SVG Export Plug-In . SVG Version: 6.00 Build 0)  -->
<svg version="1.1" id="Layer_1" xmlns="http://www.w3.org/2000/svg" xmlns:xlink="http://www.w3.org/1999/xlink" x="0px" y="0px"
	 viewBox="0 0 40 40" style="enable-background:new 0 0 40 40;" xml:space="preserve">
<style type="text/css">
	.st0{fill:#FFFFFF;}
	.st1{fill:none;stroke:#FFFFFF;stroke-width:2;stroke-miterlimit:10;}
</style>
<g>
	<path class="st0" d="M20.4,35.6l3.5-3.5c0.3-0.3,0.1-0.8-0.4-0.8h-7c-0.4,0-0.7,0.5-0.4,0.8l3.5,3.5C19.9,35.8,20.2,35.8,20.4,35.6
		z"/>
	<path class="st0" d="M21.6,30.5h-3.4c-0.1,0-0.2-0.1-0.3-0.2L17.5,29c-0.1-0.2,0.1-0.4,0.3-0.4h4.3c0.2,0,0.3,0.2,0.3,0.4l-0.5,1.3
		C21.9,30.4,21.8,30.5,21.6,30.5z"/>
	<path class="st0" d="M22.3,27.6h-4.7c-0.1,0-0.2-0.1-0.3-0.2l-0.5-1.3c-0.1-0.2,0.1-0.4,0.3-0.4h5.7c0.2,0,0.3,0.2,0.3,0.4
		l-0.5,1.3C22.5,27.5,22.4,27.6,22.3,27.6z"/>
	<path class="st0" d="M23,24.7h-6.2c-0.1,0-0.2-0.1-0.3-0.2L16,23.2c-0.1-0.2,0.1-0.4,0.3-0.4h7.4c0.2,0,0.4,0.2,0.3,0.4l-0.6,1.3
		C23.2,24.7,23.1,24.7,23,24.7z"/>
	<g>
		<g>
			<path class="st0" d="M10.9,9L10.9,9l-0.6-2.8C9.9,4.6,8.8,3.9,7.7,4.4l0,0l0.6,2.8C8.7,8.7,9.9,9.5,10.9,9z"/>
		</g>
		<g>
			<path class="st0" d="M9.6,9L9.6,9l0.6-2.8c0.4-1.6,1.5-2.3,2.6-1.7l0,0l-0.6,2.8C11.8,8.7,10.7,9.5,9.6,9z"/>
		</g>
		<g>
			<path class="st0" d="M14.8,9L14.8,9l-0.6-2.8c-0.4-1.6-1.5-2.3-2.6-1.7l0,0l0.6,2.8C12.6,8.7,13.8,9.5,14.8,9z"/>
		</g>
		<g>
			<path class="st0" d="M13.5,9L13.5,9l0.6-2.8c0.4-1.6,1.5-2.3,2.6-1.7l0,0L16,7.2C15.7,8.7,14.5,9.5,13.5,9z"/>
		</g>
		<g>
			<path class="st0" d="M18.6,9L18.6,9L18,6.2c-0.4-1.6-1.5-2.3-2.6-1.7l0,0L16,7.2C16.4,8.7,17.5,9.5,18.6,9z"/>
		</g>
		<g>
			<path class="st0" d="M17.3,9L17.3,9L18,6.2c0.4-1.6,1.5-2.3,2.6-1.7l0,0l-0.6,2.8C19.5,8.7,18.3,9.5,17.3,9z"/>
		</g>
		<g>
			<path class="st0" d="M22.5,9L22.5,9l-0.6-2.8c-0.4-1.6-1.5-2.3-2.6-1.7l0,0l0.6,2.8C20.3,8.7,21.5,9.5,22.5,9z"/>
		</g>
		<g>
			<path class="st0" d="M21.2,9L21.2,9l0.6-2.8c0.4-1.6,1.5-2.3,2.6-1.7l0,0l-0.6,2.8C23.4,8.7,22.2,9.5,21.2,9z"/>
		</g>
		<g>
			<path class="st0" d="M25.1,9L25.1,9l0.6-2.8c0.4-1.6,1.5-2.3,2.6-1.7l0,0l-0.6,2.8C27.3,8.7,26.2,9.5,25.1,9z"/>
		</g>
		<g>
			<path class="st0" d="M26.3,9L26.3,9l-0.6-2.8c-0.4-1.6-1.5-2.3-2.6-1.7l0,0l0.6,2.8C24.1,8.7,25.3,9.5,26.3,9z"/>
		</g>
		<g>
			<path class="st0" d="M10.9,13.1L10.9,13.1l-0.6-2.8C9.9,8.8,8.8,8,7.7,8.6l0,0l0.6,2.8C8.7,12.9,9.9,13.6,10.9,13.1z"/>
		</g>
		<g>
			<path class="st0" d="M9.6,13.1L9.6,13.1l0.6-2.8c0.4-1.6,1.5-2.3,2.6-1.7l0,0l-0.6,2.8C11.8,12.9,10.7,13.6,9.6,13.1z"/>
		</g>
		<g>
			<path class="st0" d="M14.8,13.1L14.8,13.1l-0.6-2.8c-0.4-1.6-1.5-2.3-2.6-1.7l0,0l0.6,2.8C12.6,12.9,13.8,13.6,14.8,13.1z"/>
		</g>
		<g>
			<path class="st0" d="M13.5,13.1L13.5,13.1l0.6-2.8c0.4-1.6,1.5-2.3,2.6-1.7l0,0L16,11.3C15.7,12.9,14.5,13.6,13.5,13.1z"/>
		</g>
		<g>
			<path class="st0" d="M18.6,13.1L18.6,13.1L18,10.3c-0.4-1.6-1.5-2.3-2.6-1.7l0,0l0.6,2.8C16.4,12.9,17.5,13.6,18.6,13.1z"/>
		</g>
		<g>
			<path class="st0" d="M17.3,13.1L17.3,13.1l0.6-2.8c0.4-1.6,1.5-2.3,2.6-1.7l0,0l-0.6,2.8C19.5,12.9,18.3,13.6,17.3,13.1z"/>
		</g>
		<g>
			<path class="st0" d="M22.5,13.1L22.5,13.1l-0.6-2.8c-0.4-1.6-1.5-2.3-2.6-1.7l0,0l0.6,2.8C20.3,12.9,21.5,13.6,22.5,13.1z"/>
		</g>
		<g>
			<path class="st0" d="M21.2,13.1L21.2,13.1l0.6-2.8c0.4-1.6,1.5-2.3,2.6-1.7l0,0l-0.6,2.8C23.4,12.9,22.2,13.6,21.2,13.1z"/>
		</g>
		<g>
			<path class="st0" d="M26.4,13.1L26.4,13.1l-0.6-2.8c-0.4-1.6-1.5-2.3-2.6-1.7l0,0l0.6,2.8C24.2,12.9,25.3,13.6,26.4,13.1z"/>
		</g>
		<g>
			<path class="st0" d="M25.1,13.1L25.1,13.1l0.6-2.8c0.4-1.6,1.5-2.3,2.6-1.7l0,0l-0.6,2.8C27.3,12.9,26.2,13.6,25.1,13.1z"/>
		</g>
		<g>
			<path class="st0" d="M10.9,17.3L10.9,17.3l-0.6-2.8c-0.4-1.6-1.5-2.3-2.6-1.7l0,0l0.6,2.8C8.7,17,9.9,17.9,10.9,17.3z"/>
		</g>
		<g>
			<path class="st0" d="M9.6,17.3L9.6,17.3l0.6-2.8c0.4-1.6,1.5-2.3,2.6-1.7l0,0l-0.6,2.8C11.8,17,10.7,17.9,9.6,17.3z"/>
		</g>
		<g>
			<path class="st0" d="M14.8,17.3L14.8,17.3l-0.6-2.8c-0.4-1.6-1.5-2.3-2.6-1.7l0,0l0.6,2.8C12.6,17,13.8,17.9,14.8,17.3z"/>
		</g>
		<g>
			<path class="st0" d="M13.5,17.3L13.5,17.3l0.6-2.8c0.4-1.6,1.5-2.3,2.6-1.7l0,0L16,15.6C15.7,17,14.5,17.9,13.5,17.3z"/>
		</g>
		<g>
			<path class="st0" d="M18.6,17.3L18.6,17.3L18,14.6c-0.4-1.6-1.5-2.3-2.6-1.7l0,0l0.6,2.8C16.4,17,17.5,17.9,18.6,17.3z"/>
		</g>
		<g>
			<path class="st0" d="M17.3,17.3L17.3,17.3l0.6-2.8c0.4-1.6,1.5-2.3,2.6-1.7l0,0l-0.6,2.8C19.5,17,18.3,17.9,17.3,17.3z"/>
		</g>
		<g>
			<path class="st0" d="M22.5,17.3L22.5,17.3l-0.6-2.8c-0.4-1.6-1.5-2.3-2.6-1.7l0,0l0.6,2.8C20.3,17,21.5,17.9,22.5,17.3z"/>
		</g>
		<g>
			<path class="st0" d="M21.2,17.3L21.2,17.3l0.6-2.8c0.4-1.6,1.5-2.3,2.6-1.7l0,0l-0.6,2.8C23.4,17,22.2,17.9,21.2,17.3z"/>
		</g>
		<g>
			<path class="st0" d="M26.4,17.3L26.4,17.3l-0.6-2.8c-0.4-1.6-1.5-2.3-2.6-1.7l0,0l0.6,2.8C24.2,17,25.3,17.9,26.4,17.3z"/>
		</g>
		<g>
			<path class="st0" d="M25.1,17.3L25.1,17.3l0.6-2.8c0.4-1.6,1.5-2.3,2.6-1.7l0,0l-0.6,2.8C27.3,17,26.2,17.9,25.1,17.3z"/>
		</g>
		<g>
			<path class="st0" d="M10.9,21.4L10.9,21.4l-0.6-2.8c-0.4-1.6-1.5-2.3-2.6-1.7l0,0l0.6,2.8C8.7,21.2,9.9,22,10.9,21.4z"/>
		</g>
		<g>
			<path class="st0" d="M9.6,21.4L9.6,21.4l0.6-2.8c0.4-1.6,1.5-2.3,2.6-1.7l0,0l-0.6,2.8C11.8,21.2,10.7,22,9.6,21.4z"/>
		</g>
		<g>
			<path class="st0" d="M14.8,21.4L14.8,21.4l-0.6-2.8c-0.4-1.6-1.5-2.3-2.6-1.7l0,0l0.6,2.8C12.6,21.2,13.8,22,14.8,21.4z"/>
		</g>
		<g>
			<path class="st0" d="M13.5,21.4L13.5,21.4l0.6-2.8c0.4-1.6,1.5-2.3,2.6-1.7l0,0L16,19.7C15.7,21.2,14.5,22,13.5,21.4z"/>
		</g>
		<g>
			<path class="st0" d="M18.6,21.4L18.6,21.4L18,18.7c-0.4-1.6-1.5-2.3-2.6-1.7l0,0l0.6,2.8C16.4,21.2,17.5,22,18.6,21.4z"/>
		</g>
		<g>
			<path class="st0" d="M17.3,21.4L17.3,21.4l0.6-2.8c0.4-1.6,1.5-2.3,2.6-1.7l0,0l-0.6,2.8C19.5,21.2,18.3,22,17.3,21.4z"/>
		</g>
		<g>
			<path class="st0" d="M22.5,21.4L22.5,21.4l-0.6-2.8c-0.4-1.6-1.5-2.3-2.6-1.7l0,0l0.6,2.8C20.3,21.2,21.5,22,22.5,21.4z"/>
		</g>
		<g>
			<path class="st0" d="M21.2,21.4L21.2,21.4l0.6-2.8c0.4-1.6,1.5-2.3,2.6-1.7l0,0l-0.6,2.8C23.4,21.2,22.2,22,21.2,21.4z"/>
		</g>
		<g>
			<path class="st0" d="M26.4,21.4L26.4,21.4l-0.6-2.8c-0.4-1.6-1.5-2.3-2.6-1.7l0,0l0.6,2.8C24.2,21.2,25.3,22,26.4,21.4z"/>
		</g>
		<g>
			<path class="st0" d="M25.1,21.4L25.1,21.4l0.6-2.8c0.4-1.6,1.5-2.3,2.6-1.7l0,0l-0.6,2.8C27.3,21.2,26.2,22,25.1,21.4z"/>
		</g>
		<g>
			<path class="st0" d="M30.2,9L30.2,9l-0.6-2.8c-0.4-1.6-1.5-2.3-2.6-1.7l0,0l0.6,2.8C28,8.7,29.2,9.5,30.2,9z"/>
		</g>
		<g>
			<path class="st0" d="M29,9L29,9l0.6-2.8c0.4-1.6,1.5-2.3,2.6-1.7l0,0l-0.6,2.8C31.2,8.7,30,9.5,29,9z"/>
		</g>
		<g>
			<path class="st0" d="M30.2,13.1L30.2,13.1l-0.6-2.8C29.2,8.8,28.1,8,27,8.6l0,0l0.6,2.8C28,12.9,29.2,13.6,30.2,13.1z"/>
		</g>
		<g>
			<path class="st0" d="M29,13.1L29,13.1l0.6-2.8C30,8.8,31.1,8,32.2,8.6l0,0l-0.6,2.8C31.2,12.9,30,13.6,29,13.1z"/>
		</g>
		<g>
			<path class="st0" d="M30.2,17.3L30.2,17.3l-0.6-2.8c-0.4-1.6-1.5-2.3-2.6-1.7l0,0l0.6,2.8C28,17,29.2,17.9,30.2,17.3z"/>
		</g>
		<g>
			<path class="st0" d="M29,17.3L29,17.3l0.6-2.8c0.4-1.6,1.5-2.3,2.6-1.7l0,0l-0.6,2.8C31.2,17,30,17.9,29,17.3z"/>
		</g>
		<g>
			<path class="st0" d="M30.2,21.4L30.2,21.4l-0.6-2.8c-0.4-1.6-1.5-2.3-2.6-1.7l0,0l0.6,2.8C28,21.2,29.2,22,30.2,21.4z"/>
		</g>
		<g>
			<path class="st0" d="M29,21.4L29,21.4l0.6-2.8c0.4-1.6,1.5-2.3,2.6-1.7l0,0l-0.6,2.8C31.2,21.2,30,22,29,21.4z"/>
		</g>
	</g>
</g>
<path class="st1" d="M29.3,38.8H10.7c-5.2,0-9.5-4.2-9.5-9.5V10.7c0-5.2,4.2-9.5,9.5-9.5h18.6c5.2,0,9.5,4.2,9.5,9.5v18.6
	C38.8,34.5,34.5,38.8,29.3,38.8z"/>
</svg>
