<?xml version="1.0" encoding="utf-8"?>
<!-- Generator: Adobe Illustrator 25.1.0, SVG Export Plug-In . SVG Version: 6.00 Build 0)  -->
<svg version="1.1" id="Layer_1" xmlns="http://www.w3.org/2000/svg" xmlns:xlink="http://www.w3.org/1999/xlink" x="0px" y="0px"
	 viewBox="0 0 40 40" style="enable-background:new 0 0 40 40;" xml:space="preserve">
<style type="text/css">
	.st0{fill:#FFFFFF;}
</style>
<rect x="6.9" y="0.53" class="st0" width="4.26" height="4.26"/>
<rect x="12.38" y="0.53" class="st0" width="4.26" height="4.26"/>
<rect x="17.87" y="0.53" class="st0" width="4.26" height="4.26"/>
<rect x="23.35" y="0.53" class="st0" width="4.26" height="4.26"/>
<rect x="28.84" y="0.53" class="st0" width="4.26" height="4.26"/>
<rect x="6.9" y="6.14" class="st0" width="4.26" height="4.26"/>
<rect x="12.38" y="6.14" class="st0" width="4.26" height="4.26"/>
<rect x="17.87" y="6.14" class="st0" width="4.26" height="4.26"/>
<rect x="23.35" y="6.14" class="st0" width="4.26" height="4.26"/>
<rect x="28.84" y="6.14" class="st0" width="4.26" height="4.26"/>
<rect x="6.9" y="11.75" class="st0" width="4.26" height="4.26"/>
<rect x="12.38" y="11.75" class="st0" width="4.26" height="4.26"/>
<rect x="17.87" y="11.75" class="st0" width="4.26" height="4.26"/>
<rect x="23.35" y="11.75" class="st0" width="4.26" height="4.26"/>
<rect x="28.84" y="11.75" class="st0" width="4.26" height="4.26"/>
<rect x="6.9" y="17.37" class="st0" width="4.26" height="4.26"/>
<rect x="12.38" y="17.37" class="st0" width="4.26" height="4.26"/>
<rect x="17.87" y="17.37" class="st0" width="4.26" height="4.26"/>
<rect x="23.35" y="17.37" class="st0" width="4.26" height="4.26"/>
<rect x="28.84" y="17.37" class="st0" width="4.26" height="4.26"/>
<path class="st0" d="M20.49,39.55l4.59-4.63c0.4-0.41,0.11-1.1-0.46-1.1h-9.18c-0.58,0-0.86,0.69-0.46,1.1l4.59,4.63
	C19.83,39.82,20.23,39.82,20.49,39.55z"/>
<path class="st0" d="M22.14,32.88h-4.45c-0.16,0-0.3-0.1-0.36-0.25l-0.61-1.73c-0.09-0.24,0.09-0.5,0.36-0.5h5.66
	c0.26,0,0.44,0.25,0.36,0.5l-0.6,1.73C22.44,32.78,22.29,32.88,22.14,32.88z"/>
<path class="st0" d="M23,29.09h-6.18c-0.16,0-0.3-0.1-0.36-0.25l-0.6-1.73c-0.09-0.24,0.09-0.5,0.36-0.5h7.4
	c0.26,0,0.44,0.25,0.36,0.5l-0.6,1.73C23.3,28.99,23.16,29.09,23,29.09z"/>
<path class="st0" d="M23.94,25.31h-8.06c-0.15,0-0.28-0.09-0.34-0.22l-0.77-1.73c-0.11-0.25,0.07-0.53,0.34-0.53h9.61
	c0.27,0,0.46,0.28,0.34,0.53l-0.77,1.73C24.23,25.22,24.09,25.31,23.94,25.31z"/>
</svg>
