<?xml version="1.0" encoding="utf-8"?>
<!-- Generator: Adobe Illustrator 25.0.1, SVG Export Plug-In . SVG Version: 6.00 Build 0)  -->
<svg version="1.1" id="Layer_1" xmlns="http://www.w3.org/2000/svg" xmlns:xlink="http://www.w3.org/1999/xlink" x="0px" y="0px"
	 viewBox="0 0 40 40" style="enable-background:new 0 0 40 40;" xml:space="preserve">
<style type="text/css">
	.st0{fill:none;stroke:#FFFFFF;stroke-width:2;stroke-miterlimit:10;}
	.st1{fill:#FFFFFF;}
</style>
<path class="st0" d="M29.3,38.8H10.7c-5.2,0-9.5-4.2-9.5-9.5V10.7c0-5.2,4.2-9.5,9.5-9.5h18.6c5.2,0,9.5,4.2,9.5,9.5v18.6
	C38.8,34.5,34.5,38.8,29.3,38.8z"/>
<g>
	<path class="st1" d="M4.8,23.6c5.5-4.8,15.5-4.8,21,0h8.5c0.5,0,0.9,0.4,0.9,0.9l0,0v8.7c0,0.5-0.4,0.9-0.9,0.9l0,0h-19
		c-0.3,0-0.7,0.2-0.9,0.4l-0.9,0.9c-0.2,0.3-0.5,0.4-0.9,0.4h-2.6c-0.3,0-0.7-0.2-0.9-0.4l-0.9-0.9c-0.2-0.3-0.5-0.4-0.9-0.4H5.7
		c-0.5,0-0.9-0.4-0.9-0.9l0,0L4.8,23.6z"/>
	<g>
		<path class="st1" d="M19.5,3.3l-4.4,4.5c-0.4,0.4-0.1,1.1,0.4,1.1h8.9c0.6,0,0.8-0.7,0.4-1.1l-4.4-4.5C20.1,3,19.7,3,19.5,3.3z"/>
		<path class="st1" d="M17.9,9.7h4.3c0.2,0,0.3,0.1,0.3,0.2l0.6,1.7c0.1,0.2-0.1,0.5-0.3,0.5h-5.5c-0.3,0-0.4-0.2-0.3-0.5l0.6-1.7
			C17.6,9.8,17.8,9.7,17.9,9.7z"/>
		<path class="st1" d="M17.1,13.1h6c0.2,0,0.3,0.1,0.3,0.2l0.6,1.7c0.1,0.2-0.1,0.5-0.3,0.5h-7.2c-0.3,0-0.4-0.2-0.3-0.5l0.6-1.7
			C16.8,13.2,16.9,13.1,17.1,13.1z"/>
		<path class="st1" d="M16.2,16.5H24c0.1,0,0.3,0.1,0.3,0.2l0.7,1.7c0.1,0.2-0.1,0.5-0.3,0.5h-9.3c-0.3,0-0.4-0.3-0.3-0.5l0.7-1.7
			C15.9,16.6,16,16.5,16.2,16.5z"/>
	</g>
</g>
</svg>
