<?xml version="1.0" encoding="utf-8"?>
<!-- Generator: Adobe Illustrator 25.1.0, SVG Export Plug-In . SVG Version: 6.00 Build 0)  -->
<svg version="1.1" id="Layer_1" xmlns="http://www.w3.org/2000/svg" xmlns:xlink="http://www.w3.org/1999/xlink" x="0px" y="0px"
	 viewBox="0 0 50 50" style="enable-background:new 0 0 50 50;" xml:space="preserve">
<style type="text/css">
	.st0{fill:#FFFFFF;}
</style>
<path class="st0" d="M0,5.92c8.97-7.89,25.44-7.89,34.44,0h14c0.79,0,1.43,0.64,1.43,1.43l0,0v14.36c0,0.79-0.64,1.43-1.43,1.43
	c0,0,0,0,0,0H17.22c-0.56,0.01-1.09,0.27-1.43,0.71l-1.43,1.44c-0.35,0.44-0.88,0.7-1.44,0.71H8.61C8.05,26,7.52,25.74,7.17,25.3
	l-1.46-1.44c-0.35-0.44-0.87-0.7-1.43-0.71H1.48c-0.79,0-1.43-0.64-1.43-1.43l0,0L0,5.92z"/>
<path class="st0" d="M25.62,49.71l6.85-6.91c0.6-0.61,0.17-1.64-0.68-1.64H18.08c-0.86,0-1.29,1.03-0.68,1.64l6.85,6.91
	C24.63,50.1,25.24,50.1,25.62,49.71z"/>
<path class="st0" d="M28.08,39.74h-6.64c-0.24,0-0.45-0.15-0.53-0.38L20,36.78c-0.13-0.36,0.14-0.75,0.53-0.75h8.45
	c0.39,0,0.66,0.38,0.53,0.75l-0.9,2.58C28.53,39.59,28.31,39.74,28.08,39.74z"/>
<path class="st0" d="M29.37,34.09h-9.23c-0.24,0-0.45-0.15-0.53-0.38l-0.9-2.58c-0.13-0.36,0.14-0.75,0.53-0.75h11.04
	c0.39,0,0.66,0.38,0.53,0.75l-0.9,2.58C29.82,33.94,29.61,34.09,29.37,34.09z"/>
<path class="st0" d="M30.77,28.44H18.74c-0.22,0-0.42-0.13-0.51-0.33l-1.15-2.58c-0.17-0.37,0.11-0.79,0.51-0.79h14.34
	c0.41,0,0.68,0.42,0.51,0.79l-1.15,2.58C31.2,28.31,30.99,28.44,30.77,28.44z"/>
</svg>
