<?xml version="1.0" encoding="utf-8"?>
<!-- Generator: Adobe Illustrator 25.0.1, SVG Export Plug-In . SVG Version: 6.00 Build 0)  -->
<svg version="1.1" id="Layer_1" xmlns="http://www.w3.org/2000/svg" xmlns:xlink="http://www.w3.org/1999/xlink" x="0px" y="0px"
	 viewBox="0 0 40.3 40.3" style="enable-background:new 0 0 40.3 40.3;" xml:space="preserve">
<style type="text/css">
	.st0{fill:#8CA1EF;}
</style>
<g>
	<rect x="7.3" y="10" class="st0" width="2.5" height="2.5"/>
	<rect x="9.7" y="10" class="st0" width="2.5" height="2.5"/>
	<rect x="12.2" y="10" class="st0" width="2.5" height="2.5"/>
	<rect x="14.6" y="10" class="st0" width="2.5" height="2.5"/>
	<rect x="17.1" y="10" class="st0" width="2.5" height="2.5"/>
	<rect x="24" y="10" class="st0" width="2.5" height="2.5"/>
	<rect x="26.5" y="10" class="st0" width="2.5" height="2.5"/>
	<rect x="28.9" y="10" class="st0" width="2.5" height="2.5"/>
	<rect x="31.4" y="10" class="st0" width="2.5" height="2.5"/>
	<rect x="31.4" y="12.5" class="st0" width="2.5" height="2.5"/>
	<rect x="33.9" y="12.6" class="st0" width="2.5" height="2.5"/>
	<rect x="33.9" y="14.8" class="st0" width="2.5" height="2.5"/>
	<rect x="36.4" y="14.8" class="st0" width="2.5" height="2.5"/>
	<rect x="36.4" y="17.3" class="st0" width="2.5" height="2.5"/>
	<rect x="36.4" y="19.8" class="st0" width="2.5" height="2.5"/>
	<rect x="36.4" y="22.3" class="st0" width="2.5" height="2.5"/>
	<rect x="36.4" y="24.3" class="st0" width="2.5" height="2.5"/>
	<rect x="36.4" y="28.9" class="st0" width="2.5" height="2.5"/>
	<rect x="33.9" y="28.9" class="st0" width="2.5" height="2.5"/>
	<rect x="33.9" y="31.4" class="st0" width="2.5" height="2.5"/>
	<rect x="31.4" y="31.4" class="st0" width="2.5" height="2.5"/>
	<rect x="28.9" y="31.4" class="st0" width="2.5" height="2.5"/>
	<rect x="28.9" y="33.9" class="st0" width="2.5" height="2.5"/>
	<rect x="26.4" y="33.9" class="st0" width="2.5" height="2.5"/>
	<rect x="23.9" y="33.9" class="st0" width="2.5" height="2.5"/>
	<rect x="21.4" y="33.9" class="st0" width="2.5" height="2.5"/>
	<rect x="18.9" y="33.9" class="st0" width="2.5" height="2.5"/>
	<rect x="16.4" y="33.9" class="st0" width="2.5" height="2.5"/>
	<rect x="13.9" y="33.9" class="st0" width="2.5" height="2.5"/>
	<rect x="11.4" y="33.9" class="st0" width="2.5" height="2.5"/>
	<rect x="8.9" y="33.9" class="st0" width="2.5" height="2.5"/>
	<rect x="8.9" y="31.4" class="st0" width="2.5" height="2.5"/>
	<rect x="6.4" y="31.4" class="st0" width="2.5" height="2.5"/>
	<rect x="3.9" y="31.4" class="st0" width="2.5" height="2.5"/>
	<rect x="3.9" y="28.9" class="st0" width="2.5" height="2.5"/>
	<rect x="1.4" y="28.9" class="st0" width="2.5" height="2.5"/>
	<rect x="1.4" y="26.4" class="st0" width="2.5" height="2.5"/>
	<rect x="1.4" y="23.9" class="st0" width="2.5" height="2.5"/>
	<rect x="1.4" y="21.9" class="st0" width="2.5" height="2.5"/>
	<rect x="1.4" y="19.5" class="st0" width="2.5" height="2.5"/>
	<rect x="1.4" y="17.1" class="st0" width="2.5" height="2.5"/>
	<rect x="1.4" y="14.6" class="st0" width="2.5" height="2.5"/>
	<rect x="3.8" y="14" class="st0" width="2.5" height="2.5"/>
	<rect x="3.8" y="11.8" class="st0" width="2.5" height="2.5"/>
	<rect x="6.3" y="11.8" class="st0" width="2.5" height="2.5"/>
	<rect x="14.7" y="17" class="st0" width="2.5" height="2.5"/>
	<rect x="14.7" y="19.5" class="st0" width="2.5" height="2.5"/>
	<rect x="14.7" y="21.9" class="st0" width="2.5" height="2.5"/>
	<rect x="24.2" y="17" class="st0" width="2.5" height="2.5"/>
	<rect x="24.2" y="19.5" class="st0" width="2.5" height="2.5"/>
	<rect x="24.2" y="21.9" class="st0" width="2.5" height="2.5"/>
	<rect x="24.2" y="26.8" class="st0" width="2.5" height="2.5"/>
	<rect x="26.5" y="26.8" class="st0" width="2.5" height="2.5"/>
	<rect x="12.2" y="26.8" class="st0" width="2.5" height="2.5"/>
	<rect x="14.5" y="26.8" class="st0" width="2.5" height="2.5"/>
	<rect x="14.9" y="29.3" class="st0" width="2.5" height="2.5"/>
	<rect x="17.2" y="29.3" class="st0" width="2.5" height="2.5"/>
	<rect x="19.6" y="29.3" class="st0" width="2.5" height="2.5"/>
	<rect x="21.9" y="29.3" class="st0" width="2.5" height="2.5"/>
	<rect x="23.9" y="29.3" class="st0" width="2.5" height="2.5"/>
	<rect x="36.4" y="26.8" class="st0" width="2.5" height="2.5"/>
	<rect x="17" y="12.5" class="st0" width="2.5" height="2.5"/>
	<rect x="19.5" y="12.5" class="st0" width="2.5" height="2.5"/>
	<rect x="21.5" y="12.5" class="st0" width="2.5" height="2.5"/>
	<rect x="21.5" y="10" class="st0" width="2.5" height="2.5"/>
</g>
</svg>
