<?xml version="1.0" encoding="utf-8"?>
<!-- Generator: Adobe Illustrator 25.1.0, SVG Export Plug-In . SVG Version: 6.00 Build 0)  -->
<svg version="1.1" id="Layer_1" xmlns="http://www.w3.org/2000/svg" xmlns:xlink="http://www.w3.org/1999/xlink" x="0px" y="0px"
	 viewBox="0 0 40.3 40.3" style="enable-background:new 0 0 40.3 40.3;" xml:space="preserve">
<style type="text/css">
	.st0{fill:#FFFFFF;}
	.st1{fill:#A7B8FC;}
	.st2{clip-path:url(#SVGID_2_);}
	.st3{fill:#003AAF;}
	.st4{fill:#19A569;}
	.st5{fill:#0A8754;}
	.st6{fill:#00188C;}
</style>
<g>
	<g>
		<circle class="st0" cx="21.8" cy="22.4" r="13.7"/>
	</g>
	<circle class="st1" cx="21.7" cy="22.3" r="13.7"/>
	<g>
		<defs>
			<path id="SVGID_1_" d="M21.3,6.5c-8.7,0-15.8,7.1-15.8,15.8S12.6,38,21.3,38S37.1,31,37.1,22.3S30,6.5,21.3,6.5z M24.8,30.3
				c-2.2,3.2-2.4,5.7-2.4,5.7l-0.7,0c0,0,0.8-2.6,1-4.9c0.1-2.2-1.7-2.7-2.6-3.8s0.1-2-0.2-2.8c-0.4-1.2-1.1-1.2-2.9-1.9
				c-1.9-0.7-2.6-3.4-2.2-4.7c0.5-1.9,0.6-3.4,0.1-4.6S13,11.9,13,11.9l3.8-3.7l7,0.8c0,0-0.4,1.1-2.5,1.3c-2,0.2-1.7,1.3-0.5,1.2
				c1.3-0.1,3,0.8,3,2.2c-0.1,1.4-1.1,1.4-1.6,2.7c-0.5,1.3,0.8,3.7,0.4,4c-0.2,0.2-0.5,0.2-1.1-0.9C21,18.1,19,19,18.1,19.8
				c-0.9,0.9,0.3,2.2,1.7,2.9c0.8,0.4,1.1,0.4,2.6,0.2c2.2-0.3,2.9,0.5,3.5,1.6C26.7,25.7,26.7,27.6,24.8,30.3z"/>
		</defs>
		<clipPath id="SVGID_2_">
			<use xlink:href="#SVGID_1_"  style="overflow:visible;"/>
		</clipPath>
		<g class="st2">
			<g>
				<path class="st3" d="M11.4,31.6l-0.1-1l0,0.5l0-0.5c0.1,0,5.7-0.5,10.9-6.2c6-6.6,7.5-12.9,7.5-13l1,0.2
					c-0.1,0.3-1.5,6.7-7.7,13.4C17.5,31.1,11.6,31.6,11.4,31.6z"/>
			</g>
			<g>
				<path class="st3" d="M10,30l-0.1-1l0,0.5l0-0.5c0.1,0,5.6-0.5,10.7-6c5.9-6.4,7.3-12.6,7.3-12.6l1,0.2
					c-0.1,0.3-1.5,6.5-7.5,13.1C16,29.4,10.3,30,10,30z"/>
			</g>
			<g>
				<path class="st3" d="M12.8,33.3l-0.1-1l0,0.5l0-0.5c0.1,0,5.8-0.5,11-6.2c6.1-6.6,7.5-13,7.5-13.1l1,0.2
					c-0.1,0.3-1.5,6.7-7.8,13.5C19,32.7,13.1,33.2,12.8,33.3z"/>
			</g>
			<g>
				<path class="st3" d="M29.1,27.4c-2.5,0-4.6-1-4.7-1l0.4-0.9c0,0,2.2,1,4.7,0.9c3.2-0.1,5.3-1.7,5.3-1.7l0.6,0.8
					c-0.1,0.1-2.3,1.7-5.8,1.9C29.4,27.4,29.2,27.4,29.1,27.4z"/>
			</g>
			<g>
				<path class="st3" d="M29.7,25.4c-2.2,0-4-0.8-4.1-0.8l0.4-0.9c0,0,2.1,0.9,4.3,0.7c3-0.2,4.8-1.7,4.8-1.7l0.6,0.8
					c-0.1,0.1-2.1,1.7-5.3,1.9C30.1,25.4,29.9,25.4,29.7,25.4z"/>
			</g>
			<g>
				<path class="st3" d="M30,23.4c-1.6,0-3-0.4-3-0.5l0.3-0.9c0,0,1.9,0.6,3.8,0.3c2.6-0.4,4.1-1.8,4.1-1.8l0.7,0.7
					c-0.1,0.1-1.7,1.6-4.6,2.1C30.8,23.4,30.4,23.4,30,23.4z"/>
			</g>
			<g>
				<path class="st3" d="M16.9,26.8c-0.1-0.1-3-2.8-4.2-7.8c-0.9-3.8,0.1-7.4,0.1-7.6l1,0.3c0,0,0,0,0,0l0,0c0,0.1-0.9,3.6-0.1,7.1
					c1.1,4.7,3.8,7.3,3.9,7.3L16.9,26.8z"/>
			</g>
			<g>
				<path class="st3" d="M15.2,27.9c-0.1-0.1-3-2.6-4.2-7.4c-1-3.6-0.2-7.1-0.1-7.3l1,0.2c0,0,0,0,0,0l0,0c0,0.1-0.8,3.4,0.1,6.8
					c1.2,4.5,3.9,6.8,3.9,6.9L15.2,27.9z"/>
			</g>
			<g>
				<path class="st3" d="M13.5,28.6c-0.1-0.1-2.7-2.1-4.1-6.2c-1-3.1-0.5-6.2-0.5-6.3l1,0.2c0,0-0.5,3,0.5,5.8
					c1.3,3.8,3.7,5.7,3.8,5.7L13.5,28.6z M9.9,16.3l-0.5-0.1L9.9,16.3C9.9,16.3,9.9,16.3,9.9,16.3L9.9,16.3z"/>
			</g>
			<g>
				<path class="st3" d="M13.2,15.4l-0.7-0.7c0.1-0.1,3.3-3.1,8-3.8c3.9-0.6,7.3,0.9,7.5,1l-0.4,0.9c0,0-3.3-1.5-6.9-0.9
					C16.3,12.5,13.2,15.3,13.2,15.4z"/>
			</g>
			<g>
				<path class="st3" d="M13.5,17.6l-0.7-0.7c0.1-0.1,3-3,7.5-4c3.7-0.8,7,0.6,7.1,0.6l-0.4,0.9c0,0-3.2-1.3-6.6-0.6
					C16.3,14.8,13.5,17.6,13.5,17.6z"/>
			</g>
			<g>
				<path class="st3" d="M13.7,19.9L13,19.2c0.1-0.1,2.7-3,6.8-4.1c3.4-0.9,6.6,0.2,6.7,0.3l-0.3,0.9c0,0-3-1-6.1-0.2
					C16.2,17.1,13.8,19.8,13.7,19.9z"/>
			</g>
		</g>
		<g class="st2">
			<path class="st3" d="M26.7,33.3c-0.9,0-2-0.1-3-0.3c-3-0.6-4.5-2.5-4.5-2.5l0.8-0.6c0,0,1.3,1.7,3.9,2.2c3.5,0.7,6.9-0.2,6.9-0.2
				l0.3,1C30.9,32.9,29.1,33.3,26.7,33.3z"/>
		</g>
		<g class="st2">
			<path class="st3" d="M27,35.1c-1.2,0-3.5-0.1-5.8-1c-2.6-1-3.6-3-3.7-3l0.9-0.4c0,0,0.9,1.7,3.1,2.6c3,1.2,6.2,1,6.2,1l0.1,1
				C27.8,35.1,27.5,35.1,27,35.1z"/>
		</g>
		<g class="st2">
			<path class="st3" d="M23.7,36.3c-0.1,0-2.9-0.2-5.4-1.6c-2.1-1.2-2.7-2.9-2.7-3l0.9-0.3L16,31.5l0.5-0.2c0,0,0.5,1.5,2.3,2.4
				c2.3,1.3,5,1.5,5,1.5L23.7,36.3z"/>
		</g>
		<g class="st2">
			<path class="st3" d="M26.6,31.6c-0.4,0-0.7,0-1.1,0c-3.2-0.2-5-2-5-2.1l0.7-0.7c0,0,1.6,1.6,4.4,1.8c3.7,0.3,7.2-1.1,7.2-1.1
				l0.4,0.9C33,30.4,30.1,31.6,26.6,31.6z"/>
		</g>
		<g class="st2">
			<path class="st3" d="M27.1,29.7c-2.5,0-4-1.1-4.1-1.1l0.6-0.8c0,0,1.7,1.2,4.4,0.9c3.5-0.4,6.4-2.2,6.4-2.2l0.5,0.8
				c-0.1,0.1-3.2,2-6.9,2.4C27.7,29.7,27.4,29.7,27.1,29.7z"/>
		</g>
		<g class="st2">
			<path class="st3" d="M31.5,22.9l-1,0c0,0,0-0.8-0.4-1.9c-0.4-1-1-1.4-1-1.4l0.5-0.9c0,0,1,0.6,1.5,1.9
				C31.5,21.9,31.5,22.9,31.5,22.9z"/>
		</g>
		<g class="st2">
			<path class="st3" d="M33.4,22.5l-1,0c0,0,0-1.3-0.6-2.8c-0.6-1.6-1.7-2.1-1.7-2.1l0.5-0.9c0.1,0,1.4,0.7,2.1,2.6
				C33.4,21.1,33.4,22.5,33.4,22.5z"/>
		</g>
		<g class="st2">
			<path class="st3" d="M34.2,21.8c0,0-0.1-1.6-1-3.5c-0.9-1.9-2.2-2.6-2.3-2.6l0.4-0.9c0.1,0,1.7,0.8,2.7,3.1c0.9,2.1,1,3.7,1,3.8
				L34.2,21.8z"/>
		</g>
		<g class="st2">
			<path class="st3" d="M9.8,29.6c0,0,0-0.9,0.3-2.2c0.3-1.2,0.9-2,0.9-2.1l0.8,0.6l-0.4-0.3l0.4,0.3c0,0-0.5,0.7-0.7,1.8
				c-0.3,1.2-0.3,1.9-0.3,1.9L9.8,29.6z"/>
		</g>
		<g class="st2">
			<path class="st3" d="M9.6,27.6l-1-0.1c0,0,0.1-0.9,0.5-2.1c0.4-1.2,1-1.9,1.1-1.9l0.8,0.6l-0.4-0.3l0.4,0.3c0,0-0.6,0.7-0.9,1.6
				C9.7,26.8,9.6,27.6,9.6,27.6z"/>
		</g>
		<g class="st2">
			<path class="st3" d="M8.7,24.9l-1-0.2c0,0,0.2-0.7,0.7-1.7c0.5-0.9,1.1-1.5,1.1-1.5l0.7,0.7c0,0-0.5,0.5-0.9,1.2
				C8.9,24.3,8.7,24.9,8.7,24.9z"/>
		</g>
		<g class="st2">
			<path class="st3" d="M15.3,23.8l-0.8-0.6c0,0,1.1-1.4,1.2-3c0.1-1.5-0.5-2.3-0.5-2.3l0.8-0.6c0,0,0.9,1.1,0.7,3
				C16.5,22.2,15.3,23.7,15.3,23.8z"/>
		</g>
		<g class="st2">
			<path class="st3" d="M16.4,25.2l-0.7-0.7c0,0,1.7-1.9,2.1-4.2c0.4-2.2-0.5-3.4-0.5-3.5l0.8-0.6c0,0.1,1.1,1.6,0.7,4.2
				C18.3,23.1,16.4,25.1,16.4,25.2z"/>
		</g>
		<g class="st2">
			<path class="st3" d="M17.9,26.6l-0.7-0.7c0,0,2.2-2.5,2.7-5.4c0.5-2.9-0.6-4.5-0.6-4.6l0.8-0.6c0.1,0.1,1.4,2,0.8,5.3
				C20.3,23.9,18,26.5,17.9,26.6z"/>
		</g>
		<g class="st2">
			<path class="st3" d="M22.1,22.7l-0.9-0.4c0,0,0.9-1.9,1-3.9c0.1-2-0.5-3-0.5-3l0.8-0.5c0,0,0.8,1.2,0.7,3.5
				C23.1,20.7,22.1,22.6,22.1,22.7z"/>
		</g>
		<g class="st2">
			<path class="st3" d="M24.5,19.7l-0.9-0.4c0,0,0.4-1,0.4-2.1c0-1-0.4-1.5-0.4-1.5l0.8-0.6c0.1,0.1,0.5,0.7,0.6,2.1
				C25,18.4,24.5,19.6,24.5,19.7z"/>
		</g>
	</g>
	<path class="st4" d="M13.1,11.4l2.1,2.3c0,0,0,2.5,0,2.9c0,0.4-0.5,2.4-0.5,2.4l0.7,2.2l1.7,1.5l1.8,0.5l1.1,1.2l-0.4,1.9l0.9,1.4
		l1.5,1.3l0.6,1.4c0,0,0.2,2,0.1,2.3S21.9,35,21.9,35l1-0.9l2.6-5.9l0.9-3.2l-1-1.8l-2.6-0.5l-2.6-0.1l-1.7-1l-1.1-1.6l1.7-1.4h2.2
		l1.1,1.2l-0.2-2.6l0.3-1.9l1.5-1.9l-1.5-1.8L20.4,11L20,10.3l1.5-0.5l2.6-1.2h-5.8l-3.1,1.3L13.1,11.4z"/>
	<g>
		<path class="st5" d="M21.8,36.4c-0.1,0-0.1,0-0.2,0c-0.3-0.1-0.4-0.4-0.3-0.6c0,0,0.8-2.6,0.9-4.7c0.1-1.3-0.6-1.9-1.4-2.5
			c-0.4-0.3-0.8-0.6-1.1-1c-0.7-0.9-0.5-1.7-0.3-2.3c0.1-0.3,0.1-0.5,0.1-0.7c-0.3-0.8-0.5-0.9-1.8-1.3c-0.2-0.1-0.5-0.2-0.8-0.3
			c-2.2-0.8-3-3.7-2.5-5.3c0.5-1.9,0.6-3.3,0.1-4.3c-0.4-1-1.6-1.3-1.6-1.3c-0.3-0.1-0.4-0.3-0.4-0.6s0.3-0.4,0.6-0.4
			c0.1,0,1.7,0.4,2.3,1.8c0.5,1.2,0.5,2.7-0.1,4.9c-0.3,1.1,0.2,3.5,1.9,4.1c0.3,0.1,0.5,0.2,0.8,0.3c1.3,0.4,2,0.7,2.5,1.9
			c0.2,0.5,0,0.9-0.1,1.3c-0.1,0.5-0.2,0.9,0.2,1.4c0.2,0.3,0.6,0.6,0.9,0.9c0.8,0.7,1.8,1.5,1.8,3.3c-0.1,2.3-0.9,4.9-1,5
			C22.2,36.3,22,36.4,21.8,36.4z"/>
	</g>
	<g>
		<path class="st5" d="M22.5,36.4C22.5,36.4,22.5,36.4,22.5,36.4c-0.3,0-0.5-0.3-0.5-0.5c0-0.1,0.3-2.7,2.5-6c2.1-3,1.5-4.7,1.1-5.3
			c-0.6-1-1.2-1.7-3.1-1.4c-1.6,0.2-1.9,0.1-2.9-0.3c-1.4-0.7-2.2-1.5-2.4-2.3c-0.1-0.3,0-0.8,0.5-1.3c0.7-0.7,2-1.3,3-1.2
			c0.6,0.1,1,0.4,1.3,0.8c-0.2-0.9-0.5-2.1-0.2-2.9c0.2-0.7,0.6-1.1,1-1.4c0.4-0.4,0.6-0.6,0.6-1.2c0-0.3-0.1-0.6-0.4-0.9
			c-0.5-0.5-1.3-0.8-2.1-0.8c-0.8,0-1.5-0.3-1.5-0.9c0-0.3,0.1-1.1,1.9-1.3c1.7-0.2,2.1-1,2.1-1l0,0L24.4,9
			c-0.1,0.1-0.6,1.4-2.9,1.6c-0.4,0-0.7,0.1-0.9,0.2c0.1,0,0.2,0,0.3,0c1,0,2.1,0.4,2.8,1.1c0.5,0.5,0.7,1,0.7,1.6
			c0,1-0.5,1.4-0.9,1.8c-0.3,0.3-0.6,0.5-0.7,1c-0.2,0.6,0.1,1.8,0.3,2.5c0.2,0.9,0.4,1.4,0,1.7c-0.1,0.1-0.3,0.2-0.7,0.1
			c-0.4-0.1-0.7-0.4-1.1-1.2c-0.1-0.2-0.3-0.3-0.5-0.4C20,19,19,19.5,18.5,20c-0.2,0.2-0.2,0.4-0.2,0.5c0,0.2,0.2,0.8,1.8,1.5
			c0.8,0.4,0.9,0.4,2.3,0.2c2.5-0.3,3.3,0.7,4,1.9c0.4,0.7,1.2,2.8-1.2,6.3C23.2,33.5,23,36,23,36C23,36.2,22.8,36.4,22.5,36.4z"/>
	</g>
	<g>
		<path class="st6" d="M17.5,38.1c-2.6,0-4.1-0.7-5.6-1.4c-1-0.5-2-0.9-3.4-1.1c-2.3-0.3-3.2,0.3-3.9,1.4c-0.1,0.2-0.5,0.3-0.7,0.1
			c-0.2-0.1-0.3-0.5-0.1-0.7c0.9-1.4,2-2.2,4.8-1.9c1.5,0.2,2.6,0.7,3.7,1.2c1.7,0.8,3.4,1.6,7,1.2c5-0.6,9.4-3.6,9.4-3.7
			c0.2-0.2,0.5-0.1,0.7,0.1c0.2,0.2,0.1,0.5-0.1,0.7c-0.2,0.1-4.6,3.3-9.9,3.8C18.7,38.1,18,38.1,17.5,38.1z"/>
	</g>
	<g>
		<path class="st6" d="M21.7,36.4c-7.8,0-14.1-6.3-14.1-14.1c0-7.8,6.3-14.1,14.1-14.1s14.1,6.3,14.1,14.1
			C35.8,30.1,29.5,36.4,21.7,36.4z M21.7,9.1C14.4,9.1,8.5,15,8.5,22.3s5.9,13.1,13.1,13.1s13.1-5.9,13.1-13.1S28.9,9.1,21.7,9.1z"
			/>
	</g>
</g>
</svg>
