<?xml version="1.0" encoding="utf-8"?>
<!-- Generator: Adobe Illustrator 25.0.0, SVG Export Plug-In . SVG Version: 6.00 Build 0)  -->
<svg version="1.1" id="Layer_1" xmlns="http://www.w3.org/2000/svg" xmlns:xlink="http://www.w3.org/1999/xlink" x="0px" y="0px"
	 viewBox="0 0 50 50" style="enable-background:new 0 0 50 50;" xml:space="preserve">
<style type="text/css">
	.st0{fill:#FFFFFF;}
</style>
<g>
	<g>
		<path class="st0" d="M21.27,16.08l1.27,2.2l1.29-2.23l-0.63-1.08c-0.21-0.36-0.51-0.67-0.87-0.88l-0.96-0.58
			c-0.2-0.12-0.46,0.03-0.46,0.26l0.02,1.12C20.94,15.31,21.06,15.72,21.27,16.08z"/>
		<polygon class="st0" points="24.98,18.05 23.69,20.28 24.98,22.52 26.27,20.28 		"/>
		<path class="st0" d="M42.29,45.29l-0.31-0.54c-0.26-0.45-0.83-0.6-1.28-0.34l-0.38,0.22l-12.9-22.35l-1.29,2.23l12.26,21.23
			l-0.38,0.22c-0.45,0.26-0.6,0.83-0.34,1.28l0.31,0.54c0.26,0.45,0.83,0.6,1.28,0.34l2.69-1.55C42.4,46.31,42.55,45.74,42.29,45.29
			z"/>
	</g>
	<path class="st0" d="M29.06,14.89l0.02-1.12c0-0.18-0.14-0.31-0.3-0.31c-0.05,0-0.11,0.01-0.16,0.04l-0.96,0.58
		c-0.36,0.22-0.66,0.52-0.87,0.88L9.67,44.63l-0.38-0.22c-0.15-0.08-0.31-0.13-0.47-0.13c-0.32,0-0.64,0.17-0.81,0.47l-0.31,0.54
		c-0.26,0.45-0.1,1.02,0.34,1.28l2.69,1.55c0.15,0.08,0.31,0.13,0.47,0.13c0.32,0,0.64-0.17,0.81-0.47l0.31-0.54
		c0.26-0.45,0.1-1.02-0.34-1.28l-0.38-0.22l17.13-29.66C28.94,15.72,29.06,15.31,29.06,14.89z"/>
	<g>
		<g>
			<path class="st0" d="M10.6,22.58c-0.45,0-0.86-0.3-0.97-0.76c-0.13-0.54,0.19-1.08,0.73-1.21L16.79,19
				c0.54-0.13,1.08,0.19,1.21,0.73c0.13,0.54-0.19,1.08-0.73,1.21l-6.42,1.61C10.77,22.57,10.68,22.58,10.6,22.58z"/>
		</g>
		<g>
			<path class="st0" d="M25.56,10.38c-0.55,0-0.99-0.44-1-0.99l-0.07-6.62c-0.01-0.55,0.44-1,0.99-1.01c0.56,0.02,1,0.44,1.01,0.99
				l0.07,6.62c0.01,0.55-0.44,1-0.99,1.01C25.56,10.38,25.56,10.38,25.56,10.38z"/>
		</g>
		<g>
			<path class="st0" d="M17.33,12.9c-0.21,0-0.43-0.07-0.61-0.21l-5.24-4.05c-0.44-0.34-0.52-0.97-0.18-1.4
				c0.34-0.44,0.97-0.52,1.4-0.18l5.24,4.05c0.44,0.34,0.52,0.97,0.18,1.4C17.93,12.77,17.63,12.9,17.33,12.9z"/>
		</g>
		<g>
			<path class="st0" d="M39.64,22.58c-0.08,0-0.16-0.01-0.24-0.03l-6.43-1.61c-0.54-0.13-0.86-0.68-0.73-1.21
				c0.13-0.54,0.68-0.86,1.21-0.73l6.43,1.61c0.54,0.13,0.86,0.68,0.73,1.21C40.5,22.27,40.09,22.58,39.64,22.58z"/>
		</g>
		<g>
			<path class="st0" d="M32.91,12.9c-0.3,0-0.59-0.13-0.79-0.39c-0.34-0.44-0.26-1.06,0.18-1.4l5.24-4.05
				c0.44-0.34,1.06-0.26,1.4,0.18c0.34,0.44,0.26,1.06-0.18,1.4l-5.24,4.05C33.34,12.83,33.13,12.9,32.91,12.9z"/>
		</g>
	</g>
</g>
</svg>
