<?xml version="1.0" encoding="utf-8"?>
<!-- Generator: Adobe Illustrator 25.0.1, SVG Export Plug-In . SVG Version: 6.00 Build 0)  -->
<svg version="1.1" id="Layer_1" xmlns="http://www.w3.org/2000/svg" xmlns:xlink="http://www.w3.org/1999/xlink" x="0px" y="0px"
	 viewBox="0 0 40 40" style="enable-background:new 0 0 40 40;" xml:space="preserve">
<style type="text/css">
	.st0{fill:none;stroke:#FFFFFF;stroke-width:2;stroke-miterlimit:10;}
	.st1{fill:#FFFFFF;}
</style>
<path class="st0" d="M29.3,38.8H10.7c-5.2,0-9.5-4.2-9.5-9.5V10.7c0-5.2,4.2-9.5,9.5-9.5h18.6c5.2,0,9.5,4.2,9.5,9.5v18.6
	C38.8,34.5,34.5,38.8,29.3,38.8z"/>
<g>
	<path class="st1" d="M3.8,8.2c5.8-5.1,16.5-5.1,22.4,0h9.1c0.5,0,0.9,0.4,0.9,0.9l0,0v9.3c0,0.5-0.4,0.9-0.9,0.9l0,0H15
		c-0.4,0-0.7,0.2-0.9,0.5l-0.9,0.9c-0.2,0.3-0.6,0.5-0.9,0.5H9.4c-0.4,0-0.7-0.2-0.9-0.5l-0.9-0.9c-0.2-0.3-0.6-0.5-0.9-0.5H4.8
		c-0.5,0-0.9-0.4-0.9-0.9l0,0L3.8,8.2z"/>
	<path class="st1" d="M20.4,36.7l4.4-4.5c0.4-0.4,0.1-1.1-0.4-1.1h-8.9c-0.6,0-0.8,0.7-0.4,1.1l4.4,4.5
		C19.8,36.9,20.2,36.9,20.4,36.7z"/>
	<path class="st1" d="M22,30.2h-4.3c-0.2,0-0.3-0.1-0.3-0.2l-0.6-1.7c-0.1-0.2,0.1-0.5,0.3-0.5h5.5c0.3,0,0.4,0.2,0.3,0.5l-0.6,1.7
		C22.3,30.1,22.2,30.2,22,30.2z"/>
	<path class="st1" d="M22.9,26.5h-6c-0.2,0-0.3-0.1-0.3-0.2L16,24.6c-0.1-0.2,0.1-0.5,0.3-0.5h7.2c0.3,0,0.4,0.2,0.3,0.5l-0.6,1.7
		C23.2,26.4,23,26.5,22.9,26.5z"/>
	<path class="st1" d="M23.8,22.9H16c-0.1,0-0.3-0.1-0.3-0.2L14.9,21c-0.1-0.2,0.1-0.5,0.3-0.5h9.3c0.3,0,0.4,0.3,0.3,0.5l-0.7,1.7
		C24.1,22.8,23.9,22.9,23.8,22.9z"/>
</g>
</svg>
