<?xml version="1.0" encoding="utf-8"?>
<!-- Generator: Adobe Illustrator 25.0.1, SVG Export Plug-In . SVG Version: 6.00 Build 0)  -->
<svg version="1.1" id="Layer_1" xmlns="http://www.w3.org/2000/svg" xmlns:xlink="http://www.w3.org/1999/xlink" x="0px" y="0px"
	 viewBox="0 0 225 50" style="enable-background:new 0 0 225 50;" xml:space="preserve">
<style type="text/css">
	.st0{fill:#FFFFFF;}
	.st1{fill:none;stroke:#FFFFFF;stroke-width:2.5;stroke-miterlimit:10;}
</style>
<g>
	<g>
		<g>
			<path class="st0" d="M17.4,36.6C11,36.6,5.8,31.4,5.8,25c0-6.4,5.2-11.6,11.6-11.6S29,18.6,29,25C29,31.4,23.8,36.6,17.4,36.6z
				 M17.4,15.1c-5.4,0-9.9,4.4-9.9,9.9s4.4,9.9,9.9,9.9s9.9-4.4,9.9-9.9S22.8,15.1,17.4,15.1z"/>
		</g>
		<g>
			<path class="st0" d="M17,15.1c0,0,0.5,0.1-1.1,0.5c-1.4,0.3-1.3,1-0.5,1c0.1,0,0.2,0,0.3,0c0.1,0,0.3,0,0.4,0
				c0.9,0,2,0.5,2.1,1.4c0.1,1.1-0.8,1.2-1,2.3c-0.2,1.1,1,2.8,0.7,3c-0.1,0.1-0.1,0.1-0.2,0.1c-0.1,0-0.4-0.2-0.8-0.7
				c-0.2-0.3-0.5-0.4-0.8-0.4c-0.7,0-1.5,0.6-1.9,1.1c-0.6,0.8,0.1,1.5,1.6,2c0.3,0.1,0.6,0.2,0.9,0.2c0.3,0,0.6-0.1,1.2-0.2
				c0.4-0.1,0.8-0.2,1.1-0.2c0.9,0,1.4,0.5,1.9,1.1c0.6,0.8,0.9,2.3-0.3,4.6c-1.4,2.7-1.3,4.3-1.3,4.3l-0.2,0.1c0,0,0,0-0.1,0
				c-0.1,0-0.2-0.1-0.2-0.2c0.1-0.6,0.3-2,0.1-3.3c-0.1-1.8-1.6-1.9-2.4-2.7c-0.8-0.8-0.1-1.6-0.4-2.2c-0.4-0.9-0.9-0.8-2.5-1.2
				c-1.6-0.3-2.3-2.4-2.2-3.4c0.2-1.5,0.1-2.7-0.4-3.6c-0.3-0.6-0.6-0.7-0.7-0.7c0,0,0,0,0-0.1c0,0,0.8-0.8,3.1-2
				C14.9,15.2,17,15.1,17,15.1 M17.1,13.4l-0.2,0c-0.3,0-2.6,0.2-4.2,1c-2.3,1.1-3.2,2.1-3.5,2.3c-0.5,0.5-0.6,1.1-0.5,1.8
				c0.1,0.5,0.5,0.9,0.9,1.1c0,0,0,0,0,0C10,20,10,20.8,9.9,22c-0.2,1.9,1,4.8,3.6,5.4c0.3,0.1,0.5,0.1,0.7,0.1
				c0.2,0,0.3,0.1,0.5,0.1c-0.1,0.6-0.1,1.7,0.9,2.6c0.4,0.4,0.8,0.7,1.2,0.9c0.7,0.4,0.7,0.5,0.7,0.8c0.1,1.2-0.1,2.4-0.1,2.9
				c-0.1,0.5,0.1,1.1,0.4,1.5c0.4,0.4,0.8,0.3,1.3,0.3c0.3,0,0.4-0.3,0.6-0.4l0.4,0l1.1-0.4L21.1,35c0-0.2,0.1-1.4,1.1-3.4
				c0.7-1.3,1-2.5,1-3.6c0-1.1-0.3-2.1-0.9-2.9c-0.4-0.5-1.1-1.4-2.6-1.7c0-0.3,0-0.6-0.1-1c-0.1-0.2-0.2-0.5-0.3-0.7
				c-0.1-0.3-0.4-0.9-0.4-1.2c0-0.1,0.1-0.1,0.2-0.3c0.3-0.4,0.9-1.2,0.8-2.5c-0.1-0.8-0.5-1.6-1.2-2.1c0.1-0.2,0.1-0.4,0.1-0.6
				c0-0.9-0.7-1.6-1.5-1.7L17.1,13.4L17.1,13.4z"/>
		</g>
		<g>
			<path class="st0" d="M7.6,24.3c-0.6,0-1.3-0.2-1.6-0.7l1.5-0.8c-0.1-0.1-0.2-0.2-0.2-0.2c0,0,0.4,0.2,1.7-0.3
				c0.4-0.2,0.8-0.3,1.1-0.4l0.7,1.6c-0.3,0.2-0.7,0.3-1.2,0.5C9.3,24,8.4,24.3,7.6,24.3z"/>
		</g>
		<g>
			<path class="st0" d="M9.5,20.1c-1.1,0-1.5-0.5-1.6-0.7l1.5-0.8c-0.1-0.1-0.2-0.2-0.2-0.2c0,0,0.2,0.1,1-0.1l0.4,1.7
				C10.1,20,9.8,20.1,9.5,20.1z"/>
		</g>
		<g>
			<path class="st0" d="M22.2,25.6l-1.5-0.8c0.4-0.9,1.2-2.1,2.4-3.1c1.9-1.8,4.2-1.9,4.3-1.9l0.1,1.7l0-0.9l0,0.9
				c0,0-1.7,0.1-3.2,1.4C23.2,23.8,22.6,24.9,22.2,25.6z"/>
		</g>
		<g>
			<path class="st0" d="M23,28.2l-1.3-1.1c0.7-0.8,1.4-1.5,2.2-2c2-1.3,4-1.1,4.1-1.1l-0.2,1.7l0.1-0.9l-0.1,0.9c0,0-1.5-0.2-3,0.8
				C24.1,26.9,23.5,27.5,23,28.2z"/>
		</g>
		<g>
			<path class="st0" d="M21.9,32l-1-1.4c0.6-0.4,1.2-0.8,1.8-1.1c2.2-1.1,4.5-1.4,4.6-1.4l0.2,1.7L27.4,29l0.1,0.9
				c0,0-2.1,0.2-4,1.2C23,31.3,22.4,31.7,21.9,32z"/>
		</g>
		<g>
			<path class="st0" d="M7.9,28.1c-1.3,0-1.8-0.6-1.9-0.8l1.5-0.8c-0.1-0.1-0.1-0.1-0.1-0.1c0,0,0.6,0.3,2.6-0.4
				c0.7-0.2,1.2-0.5,1.7-0.7l0.8,1.6c-0.5,0.2-1.1,0.5-1.8,0.8C9.5,27.9,8.6,28.1,7.9,28.1z"/>
		</g>
		<g>
			<path class="st0" d="M11.1,34.1c-0.5,0-0.8-0.1-0.8-0.1l0.4-1.7l0,0c0,0,1.3,0.3,3.7-0.9c1.3-0.6,1.9-1.2,2.3-1.5l1.2,1.3
				c-0.6,0.6-1.5,1.2-2.7,1.7C13.3,34,11.9,34.1,11.1,34.1z"/>
		</g>
		<g>
			<path class="st0" d="M14.8,36.2c-0.2,0-0.4,0-0.4,0l0.3-1.7c0,0,0,0,0,0c0,0,0.8,0.1,2.1-0.7c0.3-0.2,0.6-0.3,0.8-0.5l1,1.4
				c-0.3,0.2-0.6,0.4-0.9,0.6C16.4,36.1,15.4,36.2,14.8,36.2z"/>
		</g>
		<g>
			<path class="st0" d="M8.8,31.2c-0.8,0-1.2-0.2-1.4-0.5l1.3-1.2c-0.1-0.1-0.2-0.1-0.2-0.1c0,0,0.9,0.3,4.1-0.9
				c1-0.4,1.8-0.8,2.4-1.1l0.9,1.5c-0.7,0.4-1.6,0.8-2.7,1.3C11.1,30.9,9.7,31.2,8.8,31.2z"/>
		</g>
		<g>
			<path class="st0" d="M22.1,23.6c0,0-0.4-0.5-2.1-1.1c-0.9-0.3-1.5-0.4-1.8-0.4l0.1-1.7c0.7,0,1.4,0.2,2.3,0.5
				c2.2,0.8,2.8,1.5,3,1.8L22.1,23.6C22.1,23.5,22.1,23.5,22.1,23.6z"/>
		</g>
		<g>
			<path class="st0" d="M23.8,21.1c0,0-0.4-0.7-2.6-1.7c-0.9-0.4-1.7-0.7-2.3-0.8l0.3-1.7c0.8,0.1,1.8,0.4,2.8,0.9
				c2.8,1.3,3.4,2.3,3.5,2.6L23.8,21.1C23.8,21,23.8,21.1,23.8,21.1z"/>
		</g>
		<g>
			<path class="st0" d="M14.7,13c-0.4,0-0.8-0.3-0.9-0.7l-1.3-6.8c-0.1-0.5,0.2-0.9,0.7-1c0.5-0.1,0.9,0.2,1,0.7l1.3,6.8
				c0.1,0.5-0.2,0.9-0.7,1C14.8,13,14.7,13,14.7,13z"/>
		</g>
		<g>
			<path class="st0" d="M20,13c-0.1,0-0.1,0-0.2,0c-0.5-0.1-0.8-0.5-0.7-1l1.4-7.6c0.1-0.5,0.5-0.8,1-0.7c0.5,0.1,0.8,0.5,0.7,1
				l-1.4,7.6C20.8,12.7,20.4,13,20,13z"/>
		</g>
		<g>
			<path class="st0" d="M12.1,5.9c-0.4,0-0.8-0.3-0.9-0.7c-0.1-0.5,0.2-0.9,0.7-1l2.2-0.4c0.5-0.1,0.9,0.2,1,0.7
				c0.1,0.5-0.2,0.9-0.7,1l-2.2,0.4C12.2,5.9,12.2,5.9,12.1,5.9z"/>
		</g>
		<g>
			<path class="st0" d="M22.6,4.7c0,0-0.1,0-0.1,0l-2.2-0.3c-0.5-0.1-0.8-0.5-0.7-1c0.1-0.5,0.5-0.8,1-0.7L22.8,3
				c0.5,0.1,0.8,0.5,0.7,1C23.4,4.4,23.1,4.7,22.6,4.7z"/>
		</g>
	</g>
	<g>
		<path class="st0" d="M39.7,37.5c-0.7,0-1.3-0.6-1.3-1.3c0-0.1-0.1-8,0.1-15.9c0.1-4.5,0.2-8.1,0.3-10.8c-0.4,0.4-0.9,0.9-1.5,1.4
			c-0.5,0.5-1.3,0.4-1.8-0.1c-0.5-0.5-0.4-1.3,0.1-1.8c1.3-1.1,2.6-2.5,3.5-3.5c0.3-1.8,0.7-2.4,1.7-2.4c0.8,0,1.4,0.5,1.5,0.9
			c0.2,0.4,0.4,1-0.8,2.5C41,11.2,40.9,24.4,41,36.3C41,37,40.4,37.5,39.7,37.5C39.7,37.5,39.7,37.5,39.7,37.5z"/>
	</g>
	<g>
		<path class="st0" d="M53.6,36.7c-0.5,0-1-0.3-1.2-0.9C49,26,44.3,23.3,41.6,22.5c-1.2,0.8-2.4,1.3-3.6,1.5
			c-2.6,0.4-3.3-0.5-3.5-1.3c-0.2-1.2,0.8-2.2,2.7-2.7c0.4-0.1,1.8-0.4,3.8-0.2c4.6-3.7,9-12.2,10.5-15.9c0.3-0.6,1-0.9,1.7-0.7
			c0.6,0.3,0.9,1,0.7,1.7c-0.1,0.2-1.9,4.4-4.7,8.9c-1.8,2.9-3.6,5.2-5.3,6.8c3.6,1.5,7.8,5.3,10.9,14.4c0.2,0.7-0.1,1.4-0.8,1.6
			C53.9,36.7,53.8,36.7,53.6,36.7z"/>
	</g>
	<g>
		<path class="st0" d="M96.6,39.4c-1.1,0-2.1-0.5-2.8-1.5c-1-1.3-1.5-3.6-1.7-6.2c-2,3.1-4.5,5.4-7.4,5.6c-1.2,0.1-2.3-0.5-3.1-1.7
			c-0.5-0.8-0.8-1.8-1.1-3c-2.1,3-4.7,5.5-7.4,5.5c0,0,0,0,0,0c-0.5,0-0.9-0.2-1.2-0.5c-1-1-0.9-3.3-0.6-7.6c0.1-2.1,0.3-5.4,0-6.7
			c-1.7,1.2-3.8,6.5-4.9,9.4c-1.2,2.9-1.8,4.4-2.4,5c-0.4,0.4-1,0.5-1.6,0.3c-1.1-0.5-1.2-1.7-1.3-7.6c0-1.2,0-2.7-0.1-3.9
			c-1.3,2.5-2.8,6.1-3.5,7.7c-0.3,0.6-1,1-1.7,0.7c-0.6-0.3-1-1-0.7-1.7c0.3-0.8,3.4-8.3,5.2-10.6c0.7-0.9,1.5-0.7,1.7-0.6
			c1.3,0.5,1.4,1.9,1.5,8.4c0,0.7,0,1.5,0,2.3c0.1-0.3,0.2-0.6,0.3-0.9c2.2-5.6,4.2-10,6.7-11c0.7-0.3,1.4-0.2,2,0.2
			c1.5,1.1,1.4,4.2,1.1,9.2c-0.1,1.8-0.3,4.3-0.1,5.4c1-0.3,2.2-1.1,3.4-2.6c1.2-1.4,2.3-3.1,3.1-4.7c0.1-2.6,0.6-5.1,1.2-6.2
			c0.5-1,1.2-1.2,1.7-1.2c0,0,0,0,0,0c0.6,0,1.7,0.4,1.7,2c0,1.2-0.8,3.6-2,6.1c0,2,0.2,4,0.8,5.2c0.4,0.8,0.7,0.7,0.9,0.7
			c2.3-0.2,4.3-2.5,5.5-4.5c0.8-1.2,1.4-2.4,2-3.7c0.2-5,1.1-10,1.8-11.7c0.1-0.3,0.6-1.3,1.6-1.4c0.3,0,1.7,0,1.9,2.2
			c0.2,2-0.9,6.9-2.8,11.5c-0.1,3.7,0.2,7.2,1.2,8.9c0.5,0.8,0.9,0.8,1.1,0.8c1.2-0.1,3.4-2.5,5.8-7c-0.2-3.1-0.3-6.5-0.2-9.6
			c0.4-9.4,2.4-14.3,5.9-14.5c0.7-0.1,3,0,3.4,3.5c0.4,4.3-2.6,13.9-6.5,21.2c0.1,1,0.2,2,0.3,2.8c0-0.1,0.1-0.1,0.1-0.2
			c1.1-2.9,2.6-6.4,5.2-7c0.7-0.2,1.4,0,2,0.4c1.5,1.1,1.8,3.7,2.1,6.3c0.1,0.7,0.2,1.8,0.3,2.4c1.2-0.5,2.8-1.4,4.5-2.5
			c-0.8-2.3-0.8-4.9,0.5-7.6c2.7-5.6,5.6-5.4,6.7-5c1.8,0.5,3,2.5,2.8,4.6c-0.4,3.2-3.5,6.4-6.8,8.9c0.4,0.6,1,1.1,1.5,1.5
			c1.6,1,3.3,0.7,4.6-0.8c0.4-0.5,1.2-0.6,1.8-0.2c0.5,0.4,0.6,1.2,0.2,1.8c-2.1,2.5-5.2,3.1-7.9,1.4c-0.9-0.5-1.6-1.3-2.2-2.2
			c-2.2,1.5-4.4,2.5-5.6,2.9c-0.5,0.1-1,0.1-1.4-0.2c-1-0.7-1.2-2.2-1.4-4.6c-0.1-1.3-0.4-4-1-4.5c-1.3,0.4-2.6,3.6-3.4,5.5
			c-1,2.4-1.6,4-3.1,3.8c-0.8-0.1-1.3-0.5-1.8-3.6c-2,3-4.1,5.1-5.9,5.3C96.9,39.4,96.7,39.4,96.6,39.4z M125.8,22.4
			c-0.8,0-2.2,1-3.5,3.7c-0.8,1.7-0.9,3.4-0.6,4.9c2.7-2.1,5.1-4.7,5.3-6.8c0.1-0.8-0.3-1.6-1-1.8C125.9,22.4,125.9,22.4,125.8,22.4
			z M108.5,8.4C108.5,8.4,108.5,8.4,108.5,8.4c-0.6,0-1.1,0.5-1.6,1.3c-1.7,3.1-2.2,9.7-2.1,15.5c2.8-6.3,4.6-12.7,4.3-15.7
			C109,8.5,108.7,8.4,108.5,8.4z"/>
	</g>
	<g>
		<path class="st0" d="M88.3,27c-0.5,0-1.1-0.4-1.2-0.9c-0.2-0.7,0.2-1.4,0.9-1.6l11-3.2c0.7-0.2,1.4,0.2,1.6,0.9
			c0.2,0.7-0.2,1.4-0.9,1.6l-11,3.2C88.6,26.9,88.4,27,88.3,27z"/>
	</g>
	<g>
		<path class="st0" d="M147.6,38c-0.7,0-1.5-0.4-2.3-2c-0.9-1.8-1.6-5.1-2.1-8.2c-0.6,3.2-1.3,6.1-2,7.9c-0.5,1.2-1.1,1.8-1.8,2.1
			c-0.4,0.1-0.9,0.1-1.3-0.1c-1.5-0.8-2.4-4.1-5.1-15c-1.1-4.5-2.7-11.2-3.7-13.1c-0.6,0.8-1.5,3.5-1.8,6.4
			c-0.1,0.7-0.7,1.2-1.4,1.1c-0.7-0.1-1.2-0.7-1.1-1.4c0.3-2.6,1.3-8.7,4.5-8.9c2.1-0.1,3,2.8,6,15.3c1.1,4.4,2.4,10.1,3.4,12.4
			c0.6-1.6,1.5-4.9,2.3-10.5c0.3-2.2,0.5-4.2,0.7-5.9c-0.8-7.1-0.2-7.4,0.5-7.7c0.6-0.3,1.4-0.1,1.8,0.7c0.4,0.9,0.4,3.6,0.2,6.9
			c0.6,6,2,14.4,3.2,16.8c1.6-3.2,3.7-16.8,4.9-28.8c0.1-0.7,0.7-1.2,1.4-1.1c0.7,0.1,1.2,0.7,1.1,1.4c0,0.1-0.7,7.4-1.8,14.7
			c-2.3,15.5-3.9,16.3-4.8,16.7C148.2,37.9,147.9,38,147.6,38z M147.2,35.6L147.2,35.6L147.2,35.6z"/>
	</g>
	<g>
		<path class="st0" d="M180,38.5c-0.8,0-1.5-0.3-2-1c-1.4-1.9-0.8-6.7,0.3-10.6c-0.7-0.3-1.4-0.7-1.9-1.1c-1.1,3.7-3.3,7.8-5.6,9
			c-1.1,0.6-2.3,0.4-3.3-0.4c-0.2-0.2-0.5-0.4-0.7-0.7c-0.2,0.6-0.5,1.1-0.8,1.6c-1.1,1.6-2.7,2.3-4.5,1.9c-2.2-0.5-3.8-1.8-4.7-3.8
			c-0.2-0.4-0.3-0.8-0.4-1.2c-0.2,0.4-0.2,0.7-0.2,0.7c-0.2,0.7-0.9,1-1.6,0.8c-0.7-0.2-1-0.9-0.8-1.6c0.1-0.2,2-6,4.7-9.2
			c2.1-2.5,4.7-4,6.2-3.5c0.6,0.2,1,0.7,1,1.3c0.4,0,1,0.1,1.3,0.7c0.7,1,1.1,4.8,0.7,8.4c0.4,1.1,0.8,2.1,1.4,2.6
			c0.2,0.2,0.3,0.2,0.6,0.1c1.9-1,4-5.9,4.7-9c-0.7-1.2-0.9-2.4-0.8-3.2c0.2-1.3,1.1-1.6,1.3-1.6c0.4-0.1,1.3,0,1.9,1.3
			c0.3,0.7,0.4,1.7,0.2,2.9c0.5,0.6,1.2,1.2,2.2,1.6c0.4-0.9,0.8-1.7,1.3-2.1c1.1-1.2,2.3-1.1,3-0.6c1,0.8,1.3,2.6,0.5,4
			c-0.3,0.5-1.2,1.8-3.2,1.8c-1,3.3-1.4,7.6-0.7,8.5c0,0,0.1,0,0.3-0.1c1.1-0.5,3.2-3.1,5.4-6.6c-0.8-5.9,0-13.9,2.2-18.6
			c1.7-3.6,3.7-4.4,5.2-4.5c1.7-0.1,2.9,0.8,3.3,2.5c1,4.1-3.5,14-8.1,21.2c0.3,1.8,0.8,3.3,1.4,4.2c0.5,0.6,0.8,0.6,0.9,0.6
			c3.1-0.5,4.4-3,6.8-9c0.7-1.7,1.7-3,3.2-4.1c1-1,2.3-1.9,3.6-1.8c0.4,0,0.9,0,1.3,0.3c-0.4-4.6-0.3-9.2,0.3-11.9
			c0.6-2.5,1.6-3.8,3.1-4c1.1-0.1,3.1,0.3,3.7,4.8c0.6,4.4-0.3,13.1-3,19.5c0.7,2.4,1.6,4,2.4,4.5c0.2,0.1,0.4,0.2,0.9-0.2
			c0.6-0.4,1.4-0.3,1.8,0.2c0.4,0.6,0.3,1.4-0.2,1.8c-1.3,1-2.7,1.1-3.9,0.2c-1-0.6-1.8-1.9-2.5-3.5c-1.6,2.6-3.6,4.5-6.1,4.9
			c-3,0.5-4.4-0.6-5.1-1.6c-0.2-0.4-0.4-0.7-0.6-1.2c-1.3,1.8-2.9,3-5.2,3.4c-1.3,0.2-2.5-0.3-3.4-1.5c-0.5-0.7-1-1.7-1.3-2.8
			c-2,2.8-3.8,4.9-5,5.4C180.9,38.4,180.4,38.5,180,38.5z M164.3,22.5c-0.1,0.1-0.3,0.1-0.4,0.2c-1.1,0.5-2.7,1.3-3.5,2.5
			c-1.5,2.2-1.9,5.2-1.1,7.2c0.5,1.2,1.4,2,2.8,2.3c0.8,0.2,1.3,0,1.8-0.7c0.7-0.9,1.1-2.4,1.3-3.9C164.4,27.2,164.1,24,164.3,22.5z
			 M202.3,23.5c-0.6,0.7-1.3,1.6-2,2.9c-1.6,2.9-2.2,5.9-1.3,7.1c0.4,0.6,1.3,0.8,2.6,0.5c1.7-0.3,3.7-2.1,5.4-5.6
			c-0.5-2-1-4.2-1.2-6.4c-0.2,0.2-0.5,0.4-0.9,0.5C204.3,22.5,203.3,22.8,202.3,23.5z M193.3,8.7c0,0-0.1,0-0.1,0
			c-1.4,0.1-2.4,1.7-3,3c-1.7,3.6-2.4,9.1-2.3,13.8c3.5-6.2,6.7-13.5,6-16.3C193.8,8.9,193.7,8.7,193.3,8.7z M209.2,6.7
			c-0.2,0.1-1.1,1.3-1.4,5.6c-0.2,3.7,0.1,8,0.8,11.7c0.5-1.9,1-4,1.3-6.5C210.9,10.5,209.8,6.9,209.2,6.7z"/>
	</g>
	<g>
		<path class="st0" d="M84.9,17c-0.2,0-0.5-0.1-0.7-0.2c-0.1,0-0.8-0.5-1.6-1.5c-0.9-1-1.2-2.1-1.3-2.2c-0.2-0.7,0.2-1.4,0.9-1.6
			c0.7-0.2,1.4,0.2,1.6,0.8c0,0,0.2,0.7,0.8,1.3c0.6,0.7,1.1,1,1.1,1c0.6,0.4,0.7,1.2,0.3,1.8C85.7,16.8,85.3,17,84.9,17z"/>
	</g>
</g>
<path class="st1" d="M213.6,34c3.1-2.7,8-1,6.9,3c-1.4,5.3-9.2,8.3-39.2,9.8c-25.3,1.2-37.4-2.5-56.3-3.4
	c-24.6-1.1-56.5-1.6-81.9,2.5C20.9,49.5,2,46,4.6,39.3c1.7-4.4,9.1-1.2,16.2-4.5"/>
</svg>
