<?xml version="1.0" encoding="utf-8"?>
<!-- Generator: Adobe Illustrator 25.0.1, SVG Export Plug-In . SVG Version: 6.00 Build 0)  -->
<svg version="1.1" id="Layer_1" xmlns="http://www.w3.org/2000/svg" xmlns:xlink="http://www.w3.org/1999/xlink" x="0px" y="0px"
	 viewBox="0 0 40 40" style="enable-background:new 0 0 40 40;" xml:space="preserve">
<style type="text/css">
	.st0{fill:#A3CEF0;}
</style>
<g>
	<g>
		<path class="st0" d="M21.5,35.4c-9.7,0-17.7-7.9-17.7-17.7C3.8,8,11.8,0.1,21.5,0.1c9.7,0,17.7,7.9,17.7,17.7
			C39.2,27.5,31.3,35.4,21.5,35.4z M21.5,2.7c-8.3,0-15,6.7-15,15c0,8.3,6.7,15,15,15s15-6.7,15-15C36.5,9.4,29.8,2.7,21.5,2.7z"/>
	</g>
	<g>
		<path class="st0" d="M20.8,2.7c0.1,0,0.2,0,0.2,0s0.7,0.1-1.7,0.7c-2.2,0.5-1.9,1.5-0.8,1.5c0.1,0,0.3,0,0.4,0
			c0.2,0,0.4-0.1,0.6-0.1c1.4,0,3.1,0.7,3.2,2.2c0.1,1.6-1.1,1.8-1.5,3.4c-0.4,1.6,1.5,4.3,1.1,4.6c-0.1,0.1-0.2,0.1-0.3,0.1
			c-0.2,0-0.5-0.2-1.2-1.1c-0.3-0.4-0.7-0.6-1.2-0.6c-1.1,0-2.3,0.9-2.9,1.6c-0.9,1.1,0.1,2.3,2.5,3.1c0.5,0.2,0.9,0.3,1.3,0.3
			c0.4,0,0.9-0.1,1.8-0.3c0.6-0.2,1.2-0.2,1.6-0.2c1.4,0,2.1,0.7,2.8,1.6c1,1.2,1.3,3.6-0.5,7.1c-2.1,4.1-2,6.5-2,6.5l-0.3,0.1
			c0,0-0.1,0-0.1,0c-0.1,0-0.3-0.1-0.2-0.3c0.1-0.9,0.4-3,0.2-5c-0.2-2.7-2.4-2.9-3.6-4.2c-1.2-1.3-0.2-2.4-0.6-3.3
			c-0.7-1.3-1.4-1.3-3.8-1.8c-2.4-0.5-3.6-3.6-3.4-5.2c0.3-2.3,0.2-4.1-0.6-5.4c-0.5-0.8-0.9-1-1.1-1C11,7,11,7,11,6.9
			c0,0,1-1.5,4.7-3.1C18.1,2.8,20.1,2.7,20.8,2.7 M20.8,0C20.8,0,20.8,0,20.8,0c-0.9,0-3.4,0.1-6.2,1.4C11,3,9.5,4.6,9,5.2
			C8.4,5.9,8.2,6.8,8.5,7.7C8.7,8.4,9.2,9,9.8,9.4c0,0,0,0,0,0c0.4,0.7,0.5,1.9,0.2,3.8c-0.4,2.9,1.5,7.3,5.4,8.2
			c0.4,0.1,0.7,0.1,1,0.2c0.2,0,0.5,0.1,0.7,0.1c-0.1,0.9-0.1,2.5,1.4,4c0.6,0.6,1.3,1,1.8,1.3c1,0.6,1,0.7,1.1,1.2
			c0.1,1.8-0.1,3.7-0.2,4.4c-0.1,0.8,0.1,1.7,0.7,2.3c0.6,0.6,1.4,1,2.2,1c0.4,0,0.8-0.1,1.2-0.2l0.3-0.1l1.7-0.8L27.1,33
			c0-0.3,0.1-2.1,1.7-5.2c1-2,1.5-3.8,1.5-5.5c0-1.7-0.4-3.2-1.4-4.4c-0.6-0.7-1.8-2.2-3.9-2.6c0.1-0.4,0-1-0.1-1.6
			c-0.1-0.3-0.3-0.7-0.4-1.1c-0.2-0.4-0.6-1.4-0.6-1.8c0-0.1,0.1-0.2,0.3-0.4c0.5-0.6,1.4-1.8,1.2-3.8c-0.1-1.3-0.8-2.4-1.8-3.2
			c0.1-0.4,0.1-0.7,0.1-0.9c-0.1-1.3-1-2.4-2.3-2.6l-0.1,0l-0.1,0C21.1,0,21,0,20.8,0L20.8,0L20.8,0z"/>
	</g>
	<g>
		<path class="st0" d="M6.6,16.7c-1,0-1.9-0.3-2.4-1.1l2.3-1.3C6.4,14.1,6.3,14,6.3,14c0,0,0.6,0.3,2.6-0.5c0.6-0.2,1.2-0.5,1.6-0.7
			l1.1,2.4c-0.5,0.2-1.1,0.5-1.8,0.8C9.2,16.3,7.9,16.7,6.6,16.7z"/>
	</g>
	<g>
		<path class="st0" d="M9.5,10.2c-1.7,0-2.3-0.8-2.5-1.1l2.3-1.3C9.2,7.6,9.1,7.5,9.1,7.5c0,0,0.4,0.2,1.5-0.1l0.6,2.6
			C10.5,10.2,9.9,10.2,9.5,10.2z"/>
	</g>
	<g>
		<path class="st0" d="M28.9,18.7l-2.4-1.2c0.7-1.3,1.9-3.2,3.6-4.8c2.9-2.7,6.4-2.9,6.5-2.9l0.1,2.6c0,0-2.6,0.2-4.8,2.2
			C30.4,16,29.4,17.6,28.9,18.7z"/>
	</g>
	<g>
		<path class="st0" d="M30,22.6l-2-1.7c1-1.2,2.1-2.2,3.3-3c3-2,6.2-1.6,6.3-1.6l-0.3,2.6l0.2-1.3l-0.2,1.3c0,0-2.3-0.2-4.5,1.2
			C31.8,20.7,30.9,21.6,30,22.6z"/>
	</g>
	<g>
		<path class="st0" d="M28.4,28.4l-1.5-2.2c0.9-0.6,1.8-1.2,2.8-1.7c3.4-1.7,6.8-2.1,7-2.1l0.3,2.6l-0.1-1.3l0.1,1.3
			c0,0-3.1,0.4-6.1,1.8C30,27.4,29.2,27.9,28.4,28.4z"/>
	</g>
	<g>
		<path class="st0" d="M7.1,22.4c-2,0-2.7-0.9-2.9-1.3l2.3-1.3c-0.1-0.2-0.2-0.2-0.2-0.2c0,0,0.9,0.5,4-0.6c1-0.4,1.9-0.7,2.5-1.1
			l1.2,2.4c-0.8,0.4-1.7,0.8-2.8,1.2C9.4,22.2,8.1,22.4,7.1,22.4z"/>
	</g>
	<g>
		<path class="st0" d="M12,31.7c-0.7,0-1.2-0.1-1.3-0.1l0.7-2.6l0,0c0,0,2,0.4,5.6-1.4c1.9-1,2.9-1.8,3.4-2.2l1.8,1.9
			c-0.9,0.9-2.3,1.8-4,2.7C15.3,31.4,13.2,31.7,12,31.7z"/>
	</g>
	<g>
		<path class="st0" d="M17.7,34.8c-0.4,0-0.6,0-0.6-0.1l0.5-2.6c0,0,0,0,0,0c0,0,1.2,0.2,3.2-1c0.4-0.3,0.8-0.5,1.2-0.8l1.5,2.1
			c-0.4,0.3-0.9,0.6-1.4,0.9C20,34.6,18.5,34.8,17.7,34.8z"/>
	</g>
	<g>
		<path class="st0" d="M8.4,27.2c-1.2,0-1.8-0.3-2.2-0.7l2-1.8c-0.1-0.2-0.3-0.2-0.3-0.2c0,0,1.3,0.5,6.2-1.4
			c1.5-0.6,2.8-1.2,3.7-1.7l1.3,2.3c-1,0.6-2.4,1.3-4.1,1.9C11.9,26.8,9.8,27.2,8.4,27.2z"/>
	</g>
	<g>
		<path class="st0" d="M28.7,15.6c0,0-0.6-0.8-3.1-1.6c-1.3-0.5-2.2-0.6-2.8-0.6l0.1-2.6c1,0,2.2,0.3,3.5,0.7
			c3.4,1.2,4.3,2.3,4.5,2.8L28.7,15.6C28.6,15.5,28.6,15.5,28.7,15.6z"/>
	</g>
	<g>
		<path class="st0" d="M31.4,11.8c0,0-0.7-1.1-4-2.7c-1.3-0.6-2.5-1-3.6-1.2l0.4-2.6c1.3,0.2,2.7,0.7,4.3,1.4c4.2,1.9,5.1,3.5,5.3,4
			L31.4,11.8C31.3,11.7,31.3,11.8,31.4,11.8z"/>
	</g>
	<g>
		<path class="st0" d="M2.1,40c-0.7,0-1.3-0.6-1.3-1.3c0-0.1-0.1-2.6,1.7-4.5c1.2-1.2,2.9-1.8,5-1.8c2.5,0,4.4,0.5,6.2,1
			c2.3,0.6,4.4,1.1,7.7,0.6c6.4-1,10.1-5,10.1-5c0.5-0.5,1.3-0.6,1.9-0.1c0.5,0.5,0.6,1.3,0.1,1.9c-0.2,0.2-4.3,4.8-11.7,5.9
			c-3.8,0.6-6.3-0.1-8.7-0.7c-1.7-0.4-3.4-0.9-5.6-0.9c-1.4,0-2.4,0.3-3,1c-0.9,1-0.9,2.5-0.9,2.5C3.5,39.3,2.9,39.9,2.1,40
			C2.2,40,2.2,40,2.1,40z"/>
	</g>
</g>
</svg>
